<svg xmlns="http://www.w3.org/2000/svg" xmlns:xlink="http://www.w3.org/1999/xlink" contentStyleType="text/css" data-diagram-type="CLASS" height="1128px" preserveAspectRatio="none" style="width:1406px;height:1128px;background:#FFFFFF;" version="1.1" viewBox="0 0 1406 1128" width="1406px" zoomAndPan="magnify"><defs/><g><!--cluster com--><g class="cluster" data-entity="com" data-source-line="1" data-uid="ent0002" id="cluster_com"><path d="M8.5,6 L42.0049,6 A3.75,3.75 0 0 1 44.5049,8.5 L51.5049,28.2969 L1396.5,28.2969 A2.5,2.5 0 0 1 1399,30.7969 L1399,1119.25 A2.5,2.5 0 0 1 1396.5,1121.75 L8.5,1121.75 A2.5,2.5 0 0 1 6,1119.25 L6,8.5 A2.5,2.5 0 0 1 8.5,6" fill="none" style="stroke:#000000;stroke-width:1.5;"/><line style="stroke:#000000;stroke-width:1.5;" x1="6" x2="51.5049" y1="28.2969" y2="28.2969"/><text fill="#000000" font-family="sans-serif" font-size="14" font-weight="bold" lengthAdjust="spacing" textLength="32.5049" x="10" y="20.9951">com</text></g><!--cluster example--><g class="cluster" data-entity="example" data-source-line="2" data-uid="ent0003" id="cluster_example"><path d="M32.5,49 L100.376,49 A3.75,3.75 0 0 1 102.876,51.5 L109.876,71.2969 L1372.5,71.2969 A2.5,2.5 0 0 1 1375,73.7969 L1375,1095.25 A2.5,2.5 0 0 1 1372.5,1097.75 L32.5,1097.75 A2.5,2.5 0 0 1 30,1095.25 L30,51.5 A2.5,2.5 0 0 1 32.5,49" fill="none" style="stroke:#000000;stroke-width:1.5;"/><line style="stroke:#000000;stroke-width:1.5;" x1="30" x2="109.876" y1="71.2969" y2="71.2969"/><text fill="#000000" font-family="sans-serif" font-size="14" font-weight="bold" lengthAdjust="spacing" textLength="66.876" x="34" y="63.9951">example</text></g><!--cluster notificationapp--><g class="cluster" data-entity="notificationapp" data-source-line="3" data-uid="ent0004" id="cluster_notificationapp"><path d="M56.5,92 L177.7783,92 A3.75,3.75 0 0 1 180.2783,94.5 L187.2783,114.2969 L1348.5,114.2969 A2.5,2.5 0 0 1 1351,116.7969 L1351,1071.25 A2.5,2.5 0 0 1 1348.5,1073.75 L56.5,1073.75 A2.5,2.5 0 0 1 54,1071.25 L54,94.5 A2.5,2.5 0 0 1 56.5,92" fill="none" style="stroke:#000000;stroke-width:1.5;"/><line style="stroke:#000000;stroke-width:1.5;" x1="54" x2="187.2783" y1="114.2969" y2="114.2969"/><text fill="#000000" font-family="sans-serif" font-size="14" font-weight="bold" lengthAdjust="spacing" textLength="120.2783" x="58" y="106.9951">notificationapp</text></g><!--cluster model--><g class="cluster" data-entity="model" data-source-line="9" data-uid="ent0006" id="cluster_model"><path d="M748.5,588.08 L798.0215,588.08 A3.75,3.75 0 0 1 800.5215,590.58 L807.5215,610.3769 L1324.5,610.3769 A2.5,2.5 0 0 1 1327,612.8769 L1327,1047.25 A2.5,2.5 0 0 1 1324.5,1049.75 L748.5,1049.75 A2.5,2.5 0 0 1 746,1047.25 L746,590.58 A2.5,2.5 0 0 1 748.5,588.08" fill="none" style="stroke:#000000;stroke-width:1.5;"/><line style="stroke:#000000;stroke-width:1.5;" x1="746" x2="807.5215" y1="610.3769" y2="610.3769"/><text fill="#000000" font-family="sans-serif" font-size="14" font-weight="bold" lengthAdjust="spacing" textLength="48.5215" x="750" y="603.0751">model</text></g><!--cluster notification--><g class="cluster" data-entity="notification" data-source-line="47" data-uid="ent0015" id="cluster_notification"><path d="M80.5,463.78 L172.2881,463.78 A3.75,3.75 0 0 1 174.7881,466.28 L181.7881,486.0769 L719.5,486.0769 A2.5,2.5 0 0 1 722,488.5769 L722,914.8 A2.5,2.5 0 0 1 719.5,917.3 L80.5,917.3 A2.5,2.5 0 0 1 78,914.8 L78,466.28 A2.5,2.5 0 0 1 80.5,463.78" fill="none" style="stroke:#000000;stroke-width:1.5;"/><line style="stroke:#000000;stroke-width:1.5;" x1="78" x2="181.7881" y1="486.0769" y2="486.0769"/><text fill="#000000" font-family="sans-serif" font-size="14" font-weight="bold" lengthAdjust="spacing" textLength="90.7881" x="82" y="478.7751">notification</text></g><!--cluster service--><g class="cluster" data-entity="service" data-source-line="62" data-uid="ent0021" id="cluster_service"><path d="M264.5,135 L321.9512,135 A3.75,3.75 0 0 1 324.4512,137.5 L331.4512,157.2969 L994.5,157.2969 A2.5,2.5 0 0 1 997,159.7969 L997,437.28 A2.5,2.5 0 0 1 994.5,439.78 L264.5,439.78 A2.5,2.5 0 0 1 262,437.28 L262,137.5 A2.5,2.5 0 0 1 264.5,135" fill="none" style="stroke:#000000;stroke-width:1.5;"/><line style="stroke:#000000;stroke-width:1.5;" x1="262" x2="331.4512" y1="157.2969" y2="157.2969"/><text fill="#000000" font-family="sans-serif" font-size="14" font-weight="bold" lengthAdjust="spacing" textLength="56.4512" x="266" y="149.9951">service</text></g><!--class Main--><g class="entity" data-entity="Main" data-source-line="5" data-uid="ent0005" id="entity_Main"><rect fill="#F1F1F1" height="64.2969" rx="2.5" ry="2.5" style="stroke:#181818;stroke-width:0.5;" width="110.6973" x="1148.65" y="186.3"/><ellipse cx="1184.0244" cy="202.3" fill="#ADD1B2" rx="11" ry="11" style="stroke:#181818;stroke-width:1;"/><path d="M1186.9931,207.9406 Q1186.415,208.2375 1185.7744,208.3781 Q1185.1337,208.5344 1184.4306,208.5344 Q1181.9306,208.5344 1180.6025,206.8937 Q1179.29,205.2375 1179.29,202.1125 Q1179.29,198.9875 1180.6025,197.3312 Q1181.9306,195.675 1184.4306,195.675 Q1185.1337,195.675 1185.7744,195.8312 Q1186.4306,195.9875 1186.9931,196.2844 L1186.9931,199.0031 Q1186.3681,198.425 1185.7744,198.1594 Q1185.1806,197.8781 1184.5556,197.8781 Q1183.2119,197.8781 1182.5244,198.9562 Q1181.8369,200.0187 1181.8369,202.1125 Q1181.8369,204.2062 1182.5244,205.2844 Q1183.2119,206.3469 1184.5556,206.3469 Q1185.1806,206.3469 1185.7744,206.0812 Q1186.3681,205.8 1186.9931,205.2219 L1186.9931,207.9406 Z " fill="#000000"/><text fill="#000000" font-family="sans-serif" font-size="14" lengthAdjust="spacing" textLength="33.4209" x="1202.552" y="207.1467">Main</text><line style="stroke:#181818;stroke-width:0.5;" x1="1149.65" x2="1258.3473" y1="218.3" y2="218.3"/><line style="stroke:#181818;stroke-width:0.5;" x1="1149.65" x2="1258.3473" y1="226.3" y2="226.3"/><g data-visibility-modifier="PUBLIC_METHOD"><ellipse cx="1159.65" cy="239.9484" fill="#84BE84" rx="3" ry="3" style="stroke:#038048;stroke-width:1;"/></g><text fill="#000000" font-family="sans-serif" font-size="14" lengthAdjust="spacing" text-decoration="underline" textLength="84.6973" x="1168.65" y="243.2951">main(): void</text></g><!--class NotificationRequest--><g class="entity" data-entity="NotificationRequest" data-source-line="10" data-uid="ent0007" id="entity_NotificationRequest"><rect fill="#F1F1F1" height="145.7813" rx="2.5" ry="2.5" style="stroke:#181818;stroke-width:0.5;" width="264.3623" x="761.82" y="623.08"/><ellipse cx="820.8381" cy="639.08" fill="#ADD1B2" rx="11" ry="11" style="stroke:#181818;stroke-width:1;"/><path d="M823.8068,644.7206 Q823.2287,645.0175 822.5881,645.1581 Q821.9474,645.3144 821.2443,645.3144 Q818.7443,645.3144 817.4162,643.6738 Q816.1037,642.0175 816.1037,638.8925 Q816.1037,635.7675 817.4162,634.1113 Q818.7443,632.455 821.2443,632.455 Q821.9474,632.455 822.5881,632.6113 Q823.2443,632.7675 823.8068,633.0644 L823.8068,635.7831 Q823.1818,635.205 822.5881,634.9394 Q821.9943,634.6581 821.3693,634.6581 Q820.0256,634.6581 819.3381,635.7363 Q818.6506,636.7988 818.6506,638.8925 Q818.6506,640.9863 819.3381,642.0644 Q820.0256,643.1269 821.3693,643.1269 Q821.9943,643.1269 822.5881,642.8613 Q823.1818,642.58 823.8068,642.0019 L823.8068,644.7206 Z " fill="#000000"/><text fill="#000000" font-family="sans-serif" font-size="14" lengthAdjust="spacing" textLength="137.8262" x="841.3381" y="643.9267">NotificationRequest</text><line style="stroke:#181818;stroke-width:0.5;" x1="762.82" x2="1025.1823" y1="655.08" y2="655.08"/><g data-visibility-modifier="PRIVATE_FIELD"><rect fill="none" height="6" style="stroke:#C82930;stroke-width:1;" width="6" x="769.82" y="665.7284"/></g><text fill="#000000" font-family="sans-serif" font-size="14" lengthAdjust="spacing" textLength="131.8379" x="781.82" y="672.0751">Recipient recipient</text><g data-visibility-modifier="PRIVATE_FIELD"><rect fill="none" height="6" style="stroke:#C82930;stroke-width:1;" width="6" x="769.82" y="682.0253"/></g><text fill="#000000" font-family="sans-serif" font-size="14" lengthAdjust="spacing" textLength="109.1494" x="781.82" y="688.372">String message</text><g data-visibility-modifier="PRIVATE_FIELD"><rect fill="none" height="6" style="stroke:#C82930;stroke-width:1;" width="6" x="769.82" y="698.3222"/></g><text fill="#000000" font-family="sans-serif" font-size="14" lengthAdjust="spacing" textLength="197.6543" x="781.82" y="704.6689">NotificationChannel channel</text><line style="stroke:#181818;stroke-width:0.5;" x1="762.82" x2="1025.1823" y1="711.9706" y2="711.9706"/><g data-visibility-modifier="PUBLIC_METHOD"><ellipse cx="772.82" cy="725.6191" fill="#84BE84" rx="3" ry="3" style="stroke:#038048;stroke-width:1;"/></g><text fill="#000000" font-family="sans-serif" font-size="14" lengthAdjust="spacing" textLength="174.4395" x="781.82" y="728.9657">getRecipient(): Recipient</text><g data-visibility-modifier="PUBLIC_METHOD"><ellipse cx="772.82" cy="741.9159" fill="#84BE84" rx="3" ry="3" style="stroke:#038048;stroke-width:1;"/></g><text fill="#000000" font-family="sans-serif" font-size="14" lengthAdjust="spacing" textLength="146.2207" x="781.82" y="745.2626">getMessage(): String</text><g data-visibility-modifier="PUBLIC_METHOD"><ellipse cx="772.82" cy="758.2128" fill="#84BE84" rx="3" ry="3" style="stroke:#038048;stroke-width:1;"/></g><text fill="#000000" font-family="sans-serif" font-size="14" lengthAdjust="spacing" textLength="238.3623" x="781.82" y="761.5595">getChannel(): NotificationChannel</text></g><!--class Recipient--><g class="entity" data-entity="Recipient" data-source-line="19" data-uid="ent0008" id="entity_Recipient"><rect fill="#F1F1F1" height="64.2969" rx="2.5" ry="2.5" style="stroke:#181818;stroke-width:0.5;" width="145.5264" x="765.24" y="845.16"/><ellipse cx="801.771" cy="861.16" fill="#B4A7E5" rx="11" ry="11" style="stroke:#181818;stroke-width:1;"/><path d="M797.6929,856.9256 L797.6929,854.7694 L805.0835,854.7694 L805.0835,856.9256 L802.6148,856.9256 L802.6148,865.0038 L805.0835,865.0038 L805.0835,867.16 L797.6929,867.16 L797.6929,865.0038 L800.1616,865.0038 L800.1616,856.9256 L797.6929,856.9256 Z " fill="#000000"/><text fill="#000000" font-family="sans-serif" font-size="14" font-style="italic" lengthAdjust="spacing" textLength="65.6797" x="820.5557" y="866.0067">Recipient</text><line style="stroke:#181818;stroke-width:0.5;" x1="766.24" x2="909.7664" y1="877.16" y2="877.16"/><line style="stroke:#181818;stroke-width:0.5;" x1="766.24" x2="909.7664" y1="885.16" y2="885.16"/><g data-visibility-modifier="PUBLIC_METHOD"><ellipse cx="776.24" cy="898.8084" fill="#84BE84" rx="3" ry="3" style="stroke:#038048;stroke-width:1;"/></g><text fill="#000000" font-family="sans-serif" font-size="14" lengthAdjust="spacing" textLength="119.5264" x="785.24" y="902.1551">asString(): String</text></g><!--class EmailRecipient--><g class="entity" data-entity="EmailRecipient" data-source-line="22" data-uid="ent0009" id="entity_EmailRecipient"><rect fill="#F1F1F1" height="48" rx="2.5" ry="2.5" style="stroke:#181818;stroke-width:0.5;" width="136.5215" x="761.74" y="985.75"/><ellipse cx="776.74" cy="1001.75" fill="#ADD1B2" rx="11" ry="11" style="stroke:#181818;stroke-width:1;"/><path d="M779.7088,1007.3906 Q779.1306,1007.6875 778.49,1007.8281 Q777.8494,1007.9844 777.1463,1007.9844 Q774.6463,1007.9844 773.3181,1006.3438 Q772.0056,1004.6875 772.0056,1001.5625 Q772.0056,998.4375 773.3181,996.7813 Q774.6463,995.125 777.1463,995.125 Q777.8494,995.125 778.49,995.2813 Q779.1463,995.4375 779.7088,995.7344 L779.7088,998.4531 Q779.0838,997.875 778.49,997.6094 Q777.8963,997.3281 777.2713,997.3281 Q775.9275,997.3281 775.24,998.4063 Q774.5525,999.4688 774.5525,1001.5625 Q774.5525,1003.6563 775.24,1004.7344 Q775.9275,1005.7969 777.2713,1005.7969 Q777.8963,1005.7969 778.49,1005.5313 Q779.0838,1005.25 779.7088,1004.6719 L779.7088,1007.3906 Z " fill="#000000"/><text fill="#000000" font-family="sans-serif" font-size="14" lengthAdjust="spacing" textLength="104.5215" x="790.74" y="1006.5967">EmailRecipient</text><line style="stroke:#181818;stroke-width:0.5;" x1="762.74" x2="897.2615" y1="1017.75" y2="1017.75"/><line style="stroke:#181818;stroke-width:0.5;" x1="762.74" x2="897.2615" y1="1025.75" y2="1025.75"/></g><!--class SmsRecipient--><g class="entity" data-entity="SmsRecipient" data-source-line="23" data-uid="ent0010" id="entity_SmsRecipient"><rect fill="#F1F1F1" height="48" rx="2.5" ry="2.5" style="stroke:#181818;stroke-width:0.5;" width="127.498" x="933.25" y="985.75"/><ellipse cx="948.25" cy="1001.75" fill="#ADD1B2" rx="11" ry="11" style="stroke:#181818;stroke-width:1;"/><path d="M951.2188,1007.3906 Q950.6406,1007.6875 950,1007.8281 Q949.3594,1007.9844 948.6563,1007.9844 Q946.1563,1007.9844 944.8281,1006.3438 Q943.5156,1004.6875 943.5156,1001.5625 Q943.5156,998.4375 944.8281,996.7813 Q946.1563,995.125 948.6563,995.125 Q949.3594,995.125 950,995.2813 Q950.6563,995.4375 951.2188,995.7344 L951.2188,998.4531 Q950.5938,997.875 950,997.6094 Q949.4063,997.3281 948.7813,997.3281 Q947.4375,997.3281 946.75,998.4063 Q946.0625,999.4688 946.0625,1001.5625 Q946.0625,1003.6563 946.75,1004.7344 Q947.4375,1005.7969 948.7813,1005.7969 Q949.4063,1005.7969 950,1005.5313 Q950.5938,1005.25 951.2188,1004.6719 L951.2188,1007.3906 Z " fill="#000000"/><text fill="#000000" font-family="sans-serif" font-size="14" lengthAdjust="spacing" textLength="95.498" x="962.25" y="1006.5967">SmsRecipient</text><line style="stroke:#181818;stroke-width:0.5;" x1="934.25" x2="1059.748" y1="1017.75" y2="1017.75"/><line style="stroke:#181818;stroke-width:0.5;" x1="934.25" x2="1059.748" y1="1025.75" y2="1025.75"/></g><!--class AppUserRecipient--><g class="entity" data-entity="AppUserRecipient" data-source-line="24" data-uid="ent0011" id="entity_AppUserRecipient"><rect fill="#F1F1F1" height="48" rx="2.5" ry="2.5" style="stroke:#181818;stroke-width:0.5;" width="156.9404" x="1095.53" y="985.75"/><ellipse cx="1110.53" cy="1001.75" fill="#ADD1B2" rx="11" ry="11" style="stroke:#181818;stroke-width:1;"/><path d="M1113.4988,1007.3906 Q1112.9206,1007.6875 1112.28,1007.8281 Q1111.6394,1007.9844 1110.9363,1007.9844 Q1108.4363,1007.9844 1107.1081,1006.3438 Q1105.7956,1004.6875 1105.7956,1001.5625 Q1105.7956,998.4375 1107.1081,996.7813 Q1108.4363,995.125 1110.9363,995.125 Q1111.6394,995.125 1112.28,995.2813 Q1112.9363,995.4375 1113.4988,995.7344 L1113.4988,998.4531 Q1112.8738,997.875 1112.28,997.6094 Q1111.6863,997.3281 1111.0613,997.3281 Q1109.7175,997.3281 1109.03,998.4063 Q1108.3425,999.4688 1108.3425,1001.5625 Q1108.3425,1003.6563 1109.03,1004.7344 Q1109.7175,1005.7969 1111.0613,1005.7969 Q1111.6863,1005.7969 1112.28,1005.5313 Q1112.8738,1005.25 1113.4988,1004.6719 L1113.4988,1007.3906 Z " fill="#000000"/><text fill="#000000" font-family="sans-serif" font-size="14" lengthAdjust="spacing" textLength="124.9404" x="1124.53" y="1006.5967">AppUserRecipient</text><line style="stroke:#181818;stroke-width:0.5;" x1="1096.53" x2="1251.4704" y1="1017.75" y2="1017.75"/><line style="stroke:#181818;stroke-width:0.5;" x1="1096.53" x2="1251.4704" y1="1025.75" y2="1025.75"/></g><!--class NotificationChannel--><g class="entity" data-entity="NotificationChannel" data-source-line="26" data-uid="ent0012" id="entity_NotificationChannel"><rect fill="#F1F1F1" height="96.8906" rx="2.5" ry="2.5" style="stroke:#181818;stroke-width:0.5;" width="169.8057" x="946.1" y="828.86"/><ellipse cx="961.1" cy="844.86" fill="#EB937F" rx="11" ry="11" style="stroke:#181818;stroke-width:1;"/><path d="M965.2094,850.86 L957.4906,850.86 L957.4906,838.4694 L965.2094,838.4694 L965.2094,840.6256 L959.9438,840.6256 L959.9438,843.2975 L964.7094,843.2975 L964.7094,845.4538 L959.9438,845.4538 L959.9438,848.7038 L965.2094,848.7038 L965.2094,850.86 Z " fill="#000000"/><text fill="#000000" font-family="sans-serif" font-size="14" lengthAdjust="spacing" textLength="137.8057" x="975.1" y="849.7067">NotificationChannel</text><line style="stroke:#181818;stroke-width:0.5;" x1="947.1" x2="1114.9057" y1="860.86" y2="860.86"/><text fill="#000000" font-family="sans-serif" font-size="14" lengthAdjust="spacing" textLength="42.4307" x="952.1" y="877.8551">EMAIL</text><text fill="#000000" font-family="sans-serif" font-size="14" lengthAdjust="spacing" textLength="29.8525" x="952.1" y="894.152">SMS</text><text fill="#000000" font-family="sans-serif" font-size="14" lengthAdjust="spacing" textLength="26.4619" x="952.1" y="910.4489">APP</text><line style="stroke:#181818;stroke-width:0.5;" x1="947.1" x2="1114.9057" y1="917.7506" y2="917.7506"/></g><!--class NotificationHistory--><g class="entity" data-entity="NotificationHistory" data-source-line="32" data-uid="ent0013" id="entity_NotificationHistory"><rect fill="#F1F1F1" height="145.7813" rx="2.5" ry="2.5" style="stroke:#181818;stroke-width:0.5;" width="250.335" x="1060.83" y="623.08"/><ellipse cx="1116.6796" cy="639.08" fill="#ADD1B2" rx="11" ry="11" style="stroke:#181818;stroke-width:1;"/><path d="M1119.6484,644.7206 Q1119.0702,645.0175 1118.4296,645.1581 Q1117.789,645.3144 1117.0859,645.3144 Q1114.5859,645.3144 1113.2577,643.6738 Q1111.9452,642.0175 1111.9452,638.8925 Q1111.9452,635.7675 1113.2577,634.1113 Q1114.5859,632.455 1117.0859,632.455 Q1117.789,632.455 1118.4296,632.6113 Q1119.0859,632.7675 1119.6484,633.0644 L1119.6484,635.7831 Q1119.0234,635.205 1118.4296,634.9394 Q1117.8359,634.6581 1117.2109,634.6581 Q1115.8671,634.6581 1115.1796,635.7363 Q1114.4921,636.7988 1114.4921,638.8925 Q1114.4921,640.9863 1115.1796,642.0644 Q1115.8671,643.1269 1117.2109,643.1269 Q1117.8359,643.1269 1118.4296,642.8613 Q1119.0234,642.58 1119.6484,642.0019 L1119.6484,644.7206 Z " fill="#000000"/><text fill="#000000" font-family="sans-serif" font-size="14" lengthAdjust="spacing" textLength="130.1357" x="1137.1796" y="643.9267">NotificationHistory</text><line style="stroke:#181818;stroke-width:0.5;" x1="1061.83" x2="1310.165" y1="655.08" y2="655.08"/><g data-visibility-modifier="PRIVATE_FIELD"><rect fill="none" height="6" style="stroke:#C82930;stroke-width:1;" width="6" x="1068.83" y="665.7284"/></g><text fill="#000000" font-family="sans-serif" font-size="14" lengthAdjust="spacing" textLength="131.8379" x="1080.83" y="672.0751">Recipient recipient</text><g data-visibility-modifier="PRIVATE_FIELD"><rect fill="none" height="6" style="stroke:#C82930;stroke-width:1;" width="6" x="1068.83" y="682.0253"/></g><text fill="#000000" font-family="sans-serif" font-size="14" lengthAdjust="spacing" textLength="109.1494" x="1080.83" y="688.372">String message</text><g data-visibility-modifier="PRIVATE_FIELD"><rect fill="none" height="6" style="stroke:#C82930;stroke-width:1;" width="6" x="1068.83" y="698.3222"/></g><text fill="#000000" font-family="sans-serif" font-size="14" lengthAdjust="spacing" textLength="197.6543" x="1080.83" y="704.6689">NotificationChannel channel</text><g data-visibility-modifier="PRIVATE_FIELD"><rect fill="none" height="6" style="stroke:#C82930;stroke-width:1;" width="6" x="1068.83" y="714.6191"/></g><text fill="#000000" font-family="sans-serif" font-size="14" lengthAdjust="spacing" textLength="172.4092" x="1080.83" y="720.9657">NotificationStatus status</text><g data-visibility-modifier="PRIVATE_FIELD"><rect fill="none" height="6" style="stroke:#C82930;stroke-width:1;" width="6" x="1068.83" y="730.9159"/></g><text fill="#000000" font-family="sans-serif" font-size="14" lengthAdjust="spacing" textLength="224.335" x="1080.83" y="737.2626">java.time.LocalDateTime sentAt</text><g data-visibility-modifier="PUBLIC_FIELD"><ellipse cx="1071.83" cy="750.2128" fill="none" rx="3" ry="3" style="stroke:#038048;stroke-width:1;"/></g><text fill="#000000" font-family="sans-serif" font-size="14" lengthAdjust="spacing" textLength="63.4922" x="1080.83" y="753.5595">getters...</text><line style="stroke:#181818;stroke-width:0.5;" x1="1061.83" x2="1310.165" y1="760.8613" y2="760.8613"/></g><!--class NotificationStatus--><g class="entity" data-entity="NotificationStatus" data-source-line="41" data-uid="ent0014" id="entity_NotificationStatus"><rect fill="#F1F1F1" height="80.5938" rx="2.5" ry="2.5" style="stroke:#181818;stroke-width:0.5;" width="156.9404" x="1150.53" y="837.01"/><ellipse cx="1165.53" cy="853.01" fill="#EB937F" rx="11" ry="11" style="stroke:#181818;stroke-width:1;"/><path d="M1169.6394,859.01 L1161.9206,859.01 L1161.9206,846.6194 L1169.6394,846.6194 L1169.6394,848.7756 L1164.3738,848.7756 L1164.3738,851.4475 L1169.1394,851.4475 L1169.1394,853.6038 L1164.3738,853.6038 L1164.3738,856.8538 L1169.6394,856.8538 L1169.6394,859.01 Z " fill="#000000"/><text fill="#000000" font-family="sans-serif" font-size="14" lengthAdjust="spacing" textLength="124.9404" x="1179.53" y="857.8567">NotificationStatus</text><line style="stroke:#181818;stroke-width:0.5;" x1="1151.53" x2="1306.4704" y1="869.01" y2="869.01"/><text fill="#000000" font-family="sans-serif" font-size="14" lengthAdjust="spacing" textLength="65.3037" x="1156.53" y="886.0051">SUCCESS</text><text fill="#000000" font-family="sans-serif" font-size="14" lengthAdjust="spacing" textLength="58.3789" x="1156.53" y="902.302">FAILURE</text><line style="stroke:#181818;stroke-width:0.5;" x1="1151.53" x2="1306.4704" y1="909.6038" y2="909.6038"/></g><!--class Notification--><g class="entity" data-entity="Notification" data-source-line="48" data-uid="ent0016" id="entity_Notification"><rect fill="#F1F1F1" height="64.2969" rx="2.5" ry="2.5" style="stroke:#181818;stroke-width:0.5;" width="370.709" x="274.65" y="498.78"/><ellipse cx="415.5899" cy="514.78" fill="#B4A7E5" rx="11" ry="11" style="stroke:#181818;stroke-width:1;"/><path d="M411.5118,510.5456 L411.5118,508.3894 L418.9024,508.3894 L418.9024,510.5456 L416.4337,510.5456 L416.4337,518.6238 L418.9024,518.6238 L418.9024,520.78 L411.5118,520.78 L411.5118,518.6238 L413.9806,518.6238 L413.9806,510.5456 L411.5118,510.5456 Z " fill="#000000"/><text fill="#000000" font-family="sans-serif" font-size="14" font-style="italic" lengthAdjust="spacing" textLength="80.3291" x="436.0899" y="519.6267">Notification</text><line style="stroke:#181818;stroke-width:0.5;" x1="275.65" x2="644.359" y1="530.78" y2="530.78"/><line style="stroke:#181818;stroke-width:0.5;" x1="275.65" x2="644.359" y1="538.78" y2="538.78"/><g data-visibility-modifier="PUBLIC_METHOD"><ellipse cx="285.65" cy="552.4284" fill="#84BE84" rx="3" ry="3" style="stroke:#038048;stroke-width:1;"/></g><text fill="#000000" font-family="sans-serif" font-size="14" lengthAdjust="spacing" textLength="344.709" x="294.65" y="555.7751">NotificationHistory send(NotificationRequest req)</text></g><!--class AbstractNotification--><g class="entity" data-entity="AbstractNotification" data-source-line="52" data-uid="ent0017" id="entity_AbstractNotification"><rect fill="#F1F1F1" height="64.2969" rx="2.5" ry="2.5" style="stroke:#181818;stroke-width:0.5;" width="612.9063" x="93.55" y="663.82"/><ellipse cx="326.2043" cy="679.82" fill="#A9DCDF" rx="11" ry="11" style="stroke:#181818;stroke-width:1;"/><path d="M326.3137,675.1637 L325.1574,680.2419 L327.4855,680.2419 L326.3137,675.1637 Z M324.8293,672.9294 L327.8137,672.9294 L331.173,685.32 L328.7199,685.32 L327.9543,682.2575 L324.673,682.2575 L323.923,685.32 L321.4855,685.32 L324.8293,672.9294 Z " fill="#000000"/><text fill="#000000" font-family="sans-serif" font-size="14" font-style="italic" lengthAdjust="spacing" textLength="139.0977" x="346.7043" y="684.6667">AbstractNotification</text><line style="stroke:#181818;stroke-width:0.5;" x1="94.55" x2="705.4563" y1="695.82" y2="695.82"/><line style="stroke:#181818;stroke-width:0.5;" x1="94.55" x2="705.4563" y1="703.82" y2="703.82"/><g data-visibility-modifier="PROTECTED_METHOD"><polygon fill="#FFFF44" points="104.55,712.4684,108.55,716.4684,104.55,720.4684,100.55,716.4684" style="stroke:#B38D22;stroke-width:1;"/></g><text fill="#000000" font-family="sans-serif" font-size="14" lengthAdjust="spacing" textLength="586.9063" x="113.55" y="720.8151">NotificationHistory createHistory(NotificationRequest req, NotificationStatus status)</text></g><!--class EmailNotification--><g class="entity" data-entity="EmailNotification" data-source-line="56" data-uid="ent0018" id="entity_EmailNotification"><rect fill="#F1F1F1" height="48" rx="2.5" ry="2.5" style="stroke:#181818;stroke-width:0.5;" width="151.1709" x="142.41" y="853.3"/><ellipse cx="157.41" cy="869.3" fill="#ADD1B2" rx="11" ry="11" style="stroke:#181818;stroke-width:1;"/><path d="M160.3788,874.9406 Q159.8006,875.2375 159.16,875.3781 Q158.5194,875.5344 157.8163,875.5344 Q155.3163,875.5344 153.9881,873.8938 Q152.6756,872.2375 152.6756,869.1125 Q152.6756,865.9875 153.9881,864.3313 Q155.3163,862.675 157.8163,862.675 Q158.5194,862.675 159.16,862.8313 Q159.8163,862.9875 160.3788,863.2844 L160.3788,866.0031 Q159.7538,865.425 159.16,865.1594 Q158.5663,864.8781 157.9413,864.8781 Q156.5975,864.8781 155.91,865.9563 Q155.2225,867.0188 155.2225,869.1125 Q155.2225,871.2063 155.91,872.2844 Q156.5975,873.3469 157.9413,873.3469 Q158.5663,873.3469 159.16,873.0813 Q159.7538,872.8 160.3788,872.2219 L160.3788,874.9406 Z " fill="#000000"/><text fill="#000000" font-family="sans-serif" font-size="14" lengthAdjust="spacing" textLength="119.1709" x="171.41" y="874.1467">EmailNotification</text><line style="stroke:#181818;stroke-width:0.5;" x1="143.41" x2="292.5809" y1="885.3" y2="885.3"/><line style="stroke:#181818;stroke-width:0.5;" x1="143.41" x2="292.5809" y1="893.3" y2="893.3"/></g><!--class SmsNotification--><g class="entity" data-entity="SmsNotification" data-source-line="57" data-uid="ent0019" id="entity_SmsNotification"><rect fill="#F1F1F1" height="48" rx="2.5" ry="2.5" style="stroke:#181818;stroke-width:0.5;" width="142.1475" x="328.93" y="853.3"/><ellipse cx="343.93" cy="869.3" fill="#ADD1B2" rx="11" ry="11" style="stroke:#181818;stroke-width:1;"/><path d="M346.8988,874.9406 Q346.3206,875.2375 345.68,875.3781 Q345.0394,875.5344 344.3363,875.5344 Q341.8363,875.5344 340.5081,873.8938 Q339.1956,872.2375 339.1956,869.1125 Q339.1956,865.9875 340.5081,864.3313 Q341.8363,862.675 344.3363,862.675 Q345.0394,862.675 345.68,862.8313 Q346.3363,862.9875 346.8988,863.2844 L346.8988,866.0031 Q346.2738,865.425 345.68,865.1594 Q345.0863,864.8781 344.4613,864.8781 Q343.1175,864.8781 342.43,865.9563 Q341.7425,867.0188 341.7425,869.1125 Q341.7425,871.2063 342.43,872.2844 Q343.1175,873.3469 344.4613,873.3469 Q345.0863,873.3469 345.68,873.0813 Q346.2738,872.8 346.8988,872.2219 L346.8988,874.9406 Z " fill="#000000"/><text fill="#000000" font-family="sans-serif" font-size="14" lengthAdjust="spacing" textLength="110.1475" x="357.93" y="874.1467">SmsNotification</text><line style="stroke:#181818;stroke-width:0.5;" x1="329.93" x2="470.0775" y1="885.3" y2="885.3"/><line style="stroke:#181818;stroke-width:0.5;" x1="329.93" x2="470.0775" y1="893.3" y2="893.3"/></g><!--class InAppNotification--><g class="entity" data-entity="InAppNotification" data-source-line="58" data-uid="ent0020" id="entity_InAppNotification"><rect fill="#F1F1F1" height="48" rx="2.5" ry="2.5" style="stroke:#181818;stroke-width:0.5;" width="152.6816" x="505.66" y="853.3"/><ellipse cx="520.66" cy="869.3" fill="#ADD1B2" rx="11" ry="11" style="stroke:#181818;stroke-width:1;"/><path d="M523.6288,874.9406 Q523.0506,875.2375 522.41,875.3781 Q521.7694,875.5344 521.0663,875.5344 Q518.5663,875.5344 517.2381,873.8938 Q515.9256,872.2375 515.9256,869.1125 Q515.9256,865.9875 517.2381,864.3313 Q518.5663,862.675 521.0663,862.675 Q521.7694,862.675 522.41,862.8313 Q523.0663,862.9875 523.6288,863.2844 L523.6288,866.0031 Q523.0038,865.425 522.41,865.1594 Q521.8163,864.8781 521.1913,864.8781 Q519.8475,864.8781 519.16,865.9563 Q518.4725,867.0188 518.4725,869.1125 Q518.4725,871.2063 519.16,872.2844 Q519.8475,873.3469 521.1913,873.3469 Q521.8163,873.3469 522.41,873.0813 Q523.0038,872.8 523.6288,872.2219 L523.6288,874.9406 Z " fill="#000000"/><text fill="#000000" font-family="sans-serif" font-size="14" lengthAdjust="spacing" textLength="120.6816" x="534.66" y="874.1467">InAppNotification</text><line style="stroke:#181818;stroke-width:0.5;" x1="506.66" x2="657.3416" y1="885.3" y2="885.3"/><line style="stroke:#181818;stroke-width:0.5;" x1="506.66" x2="657.3416" y1="893.3" y2="893.3"/></g><!--class NotificationFactory--><g class="entity" data-entity="NotificationFactory" data-source-line="63" data-uid="ent0022" id="entity_NotificationFactory"><rect fill="#F1F1F1" height="64.2969" rx="2.5" ry="2.5" style="stroke:#181818;stroke-width:0.5;" width="364.1055" x="277.95" y="343.19"/><ellipse cx="389.3758" cy="359.19" fill="#ADD1B2" rx="11" ry="11" style="stroke:#181818;stroke-width:1;"/><path d="M392.3445,364.8306 Q391.7664,365.1275 391.1258,365.2681 Q390.4852,365.4244 389.782,365.4244 Q387.282,365.4244 385.9539,363.7838 Q384.6414,362.1275 384.6414,359.0025 Q384.6414,355.8775 385.9539,354.2213 Q387.282,352.565 389.782,352.565 Q390.4852,352.565 391.1258,352.7213 Q391.782,352.8775 392.3445,353.1744 L392.3445,355.8931 Q391.7195,355.315 391.1258,355.0494 Q390.532,354.7681 389.907,354.7681 Q388.5633,354.7681 387.8758,355.8463 Q387.1883,356.9088 387.1883,359.0025 Q387.1883,361.0963 387.8758,362.1744 Q388.5633,363.2369 389.907,363.2369 Q390.532,363.2369 391.1258,362.9713 Q391.7195,362.69 392.3445,362.1119 L392.3445,364.8306 Z " fill="#000000"/><text fill="#000000" font-family="sans-serif" font-size="14" lengthAdjust="spacing" textLength="132.7539" x="409.8758" y="364.0367">NotificationFactory</text><line style="stroke:#181818;stroke-width:0.5;" x1="278.95" x2="641.0555" y1="375.19" y2="375.19"/><line style="stroke:#181818;stroke-width:0.5;" x1="278.95" x2="641.0555" y1="383.19" y2="383.19"/><g data-visibility-modifier="PUBLIC_METHOD"><ellipse cx="288.95" cy="396.8384" fill="#84BE84" rx="3" ry="3" style="stroke:#038048;stroke-width:1;"/></g><text fill="#000000" font-family="sans-serif" font-size="14" lengthAdjust="spacing" textLength="338.1055" x="297.95" y="400.1851">Notification create(NotificationChannel channel)</text></g><!--class NotificationService--><g class="entity" data-entity="NotificationService" data-source-line="67" data-uid="ent0023" id="entity_NotificationService"><rect fill="#F1F1F1" height="96.8906" rx="2.5" ry="2.5" style="stroke:#181818;stroke-width:0.5;" width="370.709" x="441.65" y="170"/><ellipse cx="556.7193" cy="186" fill="#ADD1B2" rx="11" ry="11" style="stroke:#181818;stroke-width:1;"/><path d="M559.6881,191.6406 Q559.11,191.9375 558.4693,192.0781 Q557.8287,192.2344 557.1256,192.2344 Q554.6256,192.2344 553.2975,190.5938 Q551.985,188.9375 551.985,185.8125 Q551.985,182.6875 553.2975,181.0313 Q554.6256,179.375 557.1256,179.375 Q557.8287,179.375 558.4693,179.5313 Q559.1256,179.6875 559.6881,179.9844 L559.6881,182.7031 Q559.0631,182.125 558.4693,181.8594 Q557.8756,181.5781 557.2506,181.5781 Q555.9068,181.5781 555.2193,182.6563 Q554.5318,183.7188 554.5318,185.8125 Q554.5318,187.9063 555.2193,188.9844 Q555.9068,190.0469 557.2506,190.0469 Q557.8756,190.0469 558.4693,189.7813 Q559.0631,189.5 559.6881,188.9219 L559.6881,191.6406 Z " fill="#000000"/><text fill="#000000" font-family="sans-serif" font-size="14" lengthAdjust="spacing" textLength="132.0703" x="577.2193" y="190.8467">NotificationService</text><line style="stroke:#181818;stroke-width:0.5;" x1="442.65" x2="811.359" y1="202" y2="202"/><g data-visibility-modifier="PRIVATE_FIELD"><rect fill="none" height="6" style="stroke:#C82930;stroke-width:1;" width="6" x="449.65" y="212.6484"/></g><text fill="#000000" font-family="sans-serif" font-size="14" lengthAdjust="spacing" textLength="186.5049" x="461.65" y="218.9951">NotificationFactory factory</text><g data-visibility-modifier="PRIVATE_FIELD"><rect fill="none" height="6" style="stroke:#C82930;stroke-width:1;" width="6" x="449.65" y="228.9453"/></g><text fill="#000000" font-family="sans-serif" font-size="14" lengthAdjust="spacing" textLength="241.4795" x="461.65" y="235.292">NotificationHistoryRepository repo</text><line style="stroke:#181818;stroke-width:0.5;" x1="442.65" x2="811.359" y1="242.5938" y2="242.5938"/><g data-visibility-modifier="PUBLIC_METHOD"><ellipse cx="452.65" cy="256.2422" fill="#84BE84" rx="3" ry="3" style="stroke:#038048;stroke-width:1;"/></g><text fill="#000000" font-family="sans-serif" font-size="14" lengthAdjust="spacing" textLength="344.709" x="461.65" y="259.5889">NotificationHistory send(NotificationRequest req)</text></g><!--class NotificationHistoryRepository--><g class="entity" data-entity="NotificationHistoryRepository" data-source-line="73" data-uid="ent0024" id="entity_NotificationHistoryRepository"><rect fill="#F1F1F1" height="96.8906" rx="2.5" ry="2.5" style="stroke:#181818;stroke-width:0.5;" width="304.6123" x="676.69" y="326.89"/><ellipse cx="722.1421" cy="342.89" fill="#ADD1B2" rx="11" ry="11" style="stroke:#181818;stroke-width:1;"/><path d="M725.1109,348.5306 Q724.5328,348.8275 723.8921,348.9681 Q723.2515,349.1244 722.5484,349.1244 Q720.0484,349.1244 718.7203,347.4838 Q717.4078,345.8275 717.4078,342.7025 Q717.4078,339.5775 718.7203,337.9213 Q720.0484,336.265 722.5484,336.265 Q723.2515,336.265 723.8921,336.4213 Q724.5484,336.5775 725.1109,336.8744 L725.1109,339.5931 Q724.4859,339.015 723.8921,338.7494 Q723.2984,338.4681 722.6734,338.4681 Q721.3296,338.4681 720.6421,339.5463 Q719.9546,340.6088 719.9546,342.7025 Q719.9546,344.7963 720.6421,345.8744 Q721.3296,346.9369 722.6734,346.9369 Q723.2984,346.9369 723.8921,346.6713 Q724.4859,346.39 725.1109,345.8119 L725.1109,348.5306 Z " fill="#000000"/><text fill="#000000" font-family="sans-serif" font-size="14" lengthAdjust="spacing" textLength="205.208" x="742.6421" y="347.7367">NotificationHistoryRepository</text><line style="stroke:#181818;stroke-width:0.5;" x1="677.69" x2="980.3023" y1="358.89" y2="358.89"/><g data-visibility-modifier="PRIVATE_FIELD"><rect fill="none" height="6" style="stroke:#C82930;stroke-width:1;" width="6" x="684.69" y="369.5384"/></g><text fill="#000000" font-family="sans-serif" font-size="14" lengthAdjust="spacing" textLength="278.6123" x="696.69" y="375.8851">java.util.List&lt;NotificationHistory&gt; store</text><line style="stroke:#181818;stroke-width:0.5;" x1="677.69" x2="980.3023" y1="383.1869" y2="383.1869"/><g data-visibility-modifier="PUBLIC_METHOD"><ellipse cx="687.69" cy="396.8353" fill="#84BE84" rx="3" ry="3" style="stroke:#038048;stroke-width:1;"/></g><text fill="#000000" font-family="sans-serif" font-size="14" lengthAdjust="spacing" textLength="214.8125" x="696.69" y="400.182">void add(NotificationHistory h)</text><g data-visibility-modifier="PUBLIC_METHOD"><ellipse cx="687.69" cy="413.1322" fill="#84BE84" rx="3" ry="3" style="stroke:#038048;stroke-width:1;"/></g><text fill="#000000" font-family="sans-serif" font-size="14" lengthAdjust="spacing" textLength="237.3779" x="696.69" y="416.4789">List&lt;NotificationHistory&gt; findAll()</text></g><!--link NotificationRequest to Recipient--><g class="link" data-entity-1="NotificationRequest" data-entity-2="Recipient" data-source-line="87" data-uid="lnk25" id="link_NotificationRequest_Recipient"><path codeLine="87" d="M871.46,769.14 C863.26,795.42 856.1887,818.0528 849.6487,838.9928" fill="none" id="NotificationRequest-to-Recipient" style="stroke:#181818;stroke-width:1;"/><polygon fill="#181818" points="847.86,844.72,854.3612,837.3217,849.3506,839.9474,846.725,834.9368,847.86,844.72" style="stroke:#181818;stroke-width:1;"/></g><!--reverse link Recipient to EmailRecipient--><g class="link" data-entity-1="Recipient" data-entity-2="EmailRecipient" data-source-line="88" data-uid="lnk26" id="link_Recipient_EmailRecipient"><path codeLine="88" d="M834.9611,927.8464 C833.5311,951.2264 832.71,964.57 831.42,985.64" fill="none" id="Recipient-backto-EmailRecipient" style="stroke:#181818;stroke-width:1;stroke-dasharray:7,7;"/><polygon fill="none" points="836.06,909.88,828.9723,927.4801,840.9499,928.2127,836.06,909.88" style="stroke:#181818;stroke-width:1;"/></g><!--reverse link Recipient to SmsRecipient--><g class="link" data-entity-1="Recipient" data-entity-2="SmsRecipient" data-source-line="89" data-uid="lnk27" id="link_Recipient_SmsRecipient"><path codeLine="89" d="M890.4045,921.2987 C918.8945,944.6787 943.15,964.57 968.83,985.64" fill="none" id="Recipient-backto-SmsRecipient" style="stroke:#181818;stroke-width:1;stroke-dasharray:7,7;"/><polygon fill="none" points="876.49,909.88,886.5982,925.9369,894.2107,916.6606,876.49,909.88" style="stroke:#181818;stroke-width:1;"/></g><!--reverse link Recipient to AppUserRecipient--><g class="link" data-entity-1="Recipient" data-entity-2="AppUserRecipient" data-source-line="90" data-uid="lnk28" id="link_Recipient_AppUserRecipient"><path codeLine="90" d="M911.176,917.9266 C922.266,923.5466 917.86,920.99 929,925.75 C983.31,948.94 1046.47,970.21 1095.06,985.41" fill="none" id="Recipient-backto-AppUserRecipient" style="stroke:#181818;stroke-width:1;stroke-dasharray:7,7;"/><polygon fill="none" points="895.12,909.79,908.4638,923.2786,913.8882,912.5746,895.12,909.79" style="stroke:#181818;stroke-width:1;"/></g><!--reverse link Notification to AbstractNotification--><g class="link" data-entity-1="Notification" data-entity-2="AbstractNotification" data-source-line="92" data-uid="lnk29" id="link_Notification_AbstractNotification"><path codeLine="92" d="M442.2122,580.262 C431.6222,609.032 422.25,634.52 411.64,663.35" fill="none" id="Notification-backto-AbstractNotification" style="stroke:#181818;stroke-width:1;stroke-dasharray:7,7;"/><polygon fill="none" points="448.43,563.37,436.5815,578.1894,447.8429,582.3346,448.43,563.37" style="stroke:#181818;stroke-width:1;"/></g><!--reverse link AbstractNotification to EmailNotification--><g class="link" data-entity-1="AbstractNotification" data-entity-2="EmailNotification" data-source-line="93" data-uid="lnk30" id="link_AbstractNotification_EmailNotification"><path codeLine="93" d="M355.4782,740.8433 C319.4282,776.3633 274.2,820.93 241.81,852.85" fill="none" id="AbstractNotification-backto-EmailNotification" style="stroke:#181818;stroke-width:1;"/><polygon fill="none" points="368.3,728.21,351.2671,736.5694,359.6893,745.1173,368.3,728.21" style="stroke:#181818;stroke-width:1;"/></g><!--reverse link AbstractNotification to SmsNotification--><g class="link" data-entity-1="AbstractNotification" data-entity-2="SmsNotification" data-source-line="94" data-uid="lnk31" id="link_AbstractNotification_SmsNotification"><path codeLine="94" d="M400,746.21 C400,781.73 400,820.93 400,852.85" fill="none" id="AbstractNotification-backto-SmsNotification" style="stroke:#181818;stroke-width:1;"/><polygon fill="none" points="400,728.21,394,746.21,406,746.21,400,728.21" style="stroke:#181818;stroke-width:1;"/></g><!--reverse link AbstractNotification to InAppNotification--><g class="link" data-entity-1="AbstractNotification" data-entity-2="InAppNotification" data-source-line="95" data-uid="lnk32" id="link_AbstractNotification_InAppNotification"><path codeLine="95" d="M444.5218,740.8433 C480.5718,776.3633 525.8,820.93 558.19,852.85" fill="none" id="AbstractNotification-backto-InAppNotification" style="stroke:#181818;stroke-width:1;"/><polygon fill="none" points="431.7,728.21,440.3107,745.1173,448.7329,736.5694,431.7,728.21" style="stroke:#181818;stroke-width:1;"/></g><!--link NotificationService to NotificationFactory--><g class="link" data-entity-1="NotificationService" data-entity-2="NotificationFactory" data-source-line="97" data-uid="lnk33" id="link_NotificationService_NotificationFactory"><path codeLine="97" d="M575.53,267.18 C548.98,291.8 521.7491,317.0698 498.2991,338.8198" fill="none" id="NotificationService-to-NotificationFactory" style="stroke:#181818;stroke-width:1;"/><polygon fill="#181818" points="493.9,342.9,503.2188,339.7125,497.5659,339.4998,497.7785,333.847,493.9,342.9" style="stroke:#181818;stroke-width:1;"/></g><!--link NotificationService to NotificationHistoryRepository--><g class="link" data-entity-1="NotificationService" data-entity-2="NotificationHistoryRepository" data-source-line="98" data-uid="lnk34" id="link_NotificationService_NotificationHistoryRepository"><path codeLine="98" d="M689.25,267.18 C713.83,286.03 737.2481,303.9897 761.8381,322.8397" fill="none" id="NotificationService-to-NotificationHistoryRepository" style="stroke:#181818;stroke-width:1;"/><polygon fill="#181818" points="766.6,326.49,761.8908,317.84,762.6318,323.4481,757.0237,324.1891,766.6,326.49" style="stroke:#181818;stroke-width:1;"/></g><!--link NotificationFactory to Notification--><g class="link" data-entity-1="NotificationFactory" data-entity-2="Notification" data-source-line="99" data-uid="lnk35" id="link_NotificationFactory_Notification"><path codeLine="99" d="M460,407.79 C460,434.29 460,466.03 460,492.52" fill="none" id="NotificationFactory-to-Notification" style="stroke:#181818;stroke-width:1;stroke-dasharray:7,7;"/><polygon fill="#181818" points="460,498.52,464,489.52,460,493.52,456,489.52,460,498.52" style="stroke:#181818;stroke-width:1;"/></g><!--link Notification to NotificationHistory--><g class="link" data-entity-1="Notification" data-entity-2="NotificationHistory" data-source-line="100" data-uid="lnk36" id="link_Notification_NotificationHistory"><path codeLine="100" d="M645.72,535.41 C788.92,540.29 973.95,552 1044,580.08 C1068.87,590.05 1088.1288,602.1844 1109.0188,619.0244" fill="none" id="Notification-to-NotificationHistory" style="stroke:#181818;stroke-width:1;"/><polygon fill="#181818" points="1113.69,622.79,1109.1936,614.0275,1109.7973,619.652,1104.1728,620.2558,1113.69,622.79" style="stroke:#181818;stroke-width:1;"/></g><!--link NotificationHistory to NotificationStatus--><g class="link" data-entity-1="NotificationHistory" data-entity-2="NotificationStatus" data-source-line="102" data-uid="lnk37" id="link_NotificationHistory_NotificationStatus"><path codeLine="102" d="M1203.3,769.14 C1208.83,792.2 1213.3509,811.0454 1218.1109,830.8954" fill="none" id="NotificationHistory-to-NotificationStatus" style="stroke:#181818;stroke-width:1;"/><polygon fill="#181818" points="1219.51,836.73,1221.301,827.0454,1218.3441,831.8678,1213.5216,828.9109,1219.51,836.73" style="stroke:#181818;stroke-width:1;"/></g><!--link NotificationRequest to NotificationChannel--><g class="link" data-entity-1="NotificationRequest" data-entity-2="NotificationChannel" data-source-line="103" data-uid="lnk38" id="link_NotificationRequest_NotificationChannel"><path codeLine="103" d="M949.13,769.14 C964.37,789.09 976.8866,805.4729 990.7966,823.6729" fill="none" id="NotificationRequest-to-NotificationChannel" style="stroke:#181818;stroke-width:1;"/><polygon fill="#181818" points="994.44,828.44,992.1529,818.8604,991.4038,824.4674,985.7968,823.7183,994.44,828.44" style="stroke:#181818;stroke-width:1;"/></g><!--SRC=[pLR_Rjem4FwVfx2qVq0TVe2fGaACQfMWgfBn09unr5tYfB51hHZllalYD3zyIO09j0ZXEFxEt_dEzzanux_PLX0UXUGm82IsVV7EmZWGsRVogugCt4ZEZ8mKYsCOpORJXmTCQx9aKbcRz3be0rX-97SaX97Xw1lPHtBzENuixGkAC5gBe395EVTJXTmJRpkXJGENFcFY2IvZAPGXIV66e7oJIBKbeT0QQ150bMxsmfG2jtZUEkWxiXNcapTTfjTAdM6NEMsAp1t1OPOtXI7kr6mgeKmVgOn8DeoBIZWE20dJEN-B9qSa3tD8PO2lBmVueUuQdiRnIekaXDGmGkr2DFQkz_Fbz77XVFMNllDj-lpS5IntV_sGsaJ9n_-ol-fe7ufgfudE6WJxolQC6XaAkeWu2xup8tv2ZsZmTDgo8M6tQ4ffLvISp5W_t1ZvgzbixhjfU81yhRnvomv3nA2gDmsUSeC_jOFovM69XLYiXvYY9E9jr1K5zakRX75JR6RRxN7Y2-e4JmJanlRQlFdQdljH_wREYhKw0LwlFOX71KLRmtHb3OfxBxde5V47Y1jUPFMSsJWDEofcT5vv-wY7RgKL7cxojWTj4-c9ED8oiqlWzTeRibMyAduSsbHYPsH05u2_HoQOaBGHo0BIGvomTTtXOYKl8yIYdMCZrNeQm1dNBGlG3B9_-C5bXTeB2crSIMXsVw1O8CVZ2UctB8-bCx3a_W-b9qpUE3glm50xUwymltjuTzbK-xMSzDFLJ36L7VoJDJWm7f_kW2kZjsHl2lGjkH7fxxArsaynjUqhGCpMAl1DEHtz75peDQ5qGYwgZmkhwZI9GzPwhgOMMdy-ONw1kQg48_U4lm00]--></g></svg>