<?plantuml 1.2026.0?><svg xmlns="http://www.w3.org/2000/svg" xmlns:xlink="http://www.w3.org/1999/xlink" contentStyleType="text/css" data-diagram-type="SEQUENCE" height="610px" preserveAspectRatio="none" style="width:975px;height:610px;background:#FFFFFF;" version="1.1" viewBox="0 0 975 610" width="975px" zoomAndPan="magnify"><defs/><g><g><title>Main</title><rect fill="#FFFFFF" height="408.5938" style="stroke:#181818;stroke-width:1;" width="10" x="95.3423" y="112.4297"/></g><g><title>NotificationService</title><rect fill="#FFFFFF" height="203.6641" style="stroke:#181818;stroke-width:1;" width="10" x="215.4502" y="206.9609"/></g><g><title>NotificationFactory</title><rect fill="#FFFFFF" height="29.1328" style="stroke:#181818;stroke-width:1;" width="10" x="419.3135" y="236.0938"/></g><g><title>EmailNotification</title><rect fill="#FFFFFF" height="102.2656" style="stroke:#181818;stroke-width:1;" width="10" x="569.2759" y="294.3594"/></g><g><title>NotificationHistoryRepository</title><rect fill="#FFFFFF" height="30" style="stroke:#181818;stroke-width:1;" width="10" x="755.4653" y="352.625"/></g><g><title>NotificationHistoryRepository</title><rect fill="#FFFFFF" height="29.1328" style="stroke:#181818;stroke-width:1;" width="10" x="755.4653" y="439.7578"/></g><g class="participant-lifeline" data-entity-uid="part1" data-qualified-name="User" id="part1-lifeline"><g><title>User</title><rect fill="#000000" fill-opacity="0.00000" height="448.7266" width="8" x="19.9551" y="81.2969"/><line style="stroke:#181818;stroke-width:0.5;stroke-dasharray:5,5;" x1="23" x2="23" y1="81.2969" y2="530.0234"/></g></g><g class="participant-lifeline" data-entity-uid="part2" data-qualified-name="Main" id="part2-lifeline"><g><title>Main</title><rect fill="#000000" fill-opacity="0.00000" height="448.7266" width="8" x="96.3423" y="81.2969"/><line style="stroke:#181818;stroke-width:0.5;stroke-dasharray:5,5;" x1="99.6318" x2="99.6318" y1="81.2969" y2="530.0234"/></g></g><g class="participant-lifeline" data-entity-uid="part3" data-qualified-name="NotificationService" id="part3-lifeline"><g><title>NotificationService</title><rect fill="#000000" fill-opacity="0.00000" height="448.7266" width="8" x="216.4502" y="81.2969"/><line style="stroke:#181818;stroke-width:0.5;stroke-dasharray:5,5;" x1="220.415" x2="220.415" y1="81.2969" y2="530.0234"/></g></g><g class="participant-lifeline" data-entity-uid="part4" data-qualified-name="NotificationFactory" id="part4-lifeline"><g><title>NotificationFactory</title><rect fill="#000000" fill-opacity="0.00000" height="448.7266" width="8" x="420.3135" y="81.2969"/><line style="stroke:#181818;stroke-width:0.5;stroke-dasharray:5,5;" x1="423.9365" x2="423.9365" y1="81.2969" y2="530.0234"/></g></g><g class="participant-lifeline" data-entity-uid="part5" data-qualified-name="EmailNotification" id="part5-lifeline"><g><title>EmailNotification</title><rect fill="#000000" fill-opacity="0.00000" height="448.7266" width="8" x="570.2759" y="81.2969"/><line style="stroke:#181818;stroke-width:0.5;stroke-dasharray:5,5;" x1="573.6904" x2="573.6904" y1="81.2969" y2="530.0234"/></g></g><g class="participant-lifeline" data-entity-uid="part6" data-qualified-name="NotificationHistoryRepository" id="part6-lifeline"><g><title>NotificationHistoryRepository</title><rect fill="#000000" fill-opacity="0.00000" height="448.7266" width="8" x="756.4653" y="81.2969"/><line style="stroke:#181818;stroke-width:0.5;stroke-dasharray:5,5;" x1="759.8613" x2="759.8613" y1="81.2969" y2="530.0234"/></g></g><g class="participant-lifeline" data-entity-uid="part7" data-qualified-name="Console" id="part7-lifeline"><g><title>Console</title><rect fill="#000000" fill-opacity="0.00000" height="448.7266" width="8" x="939.999" y="81.2969"/><line style="stroke:#181818;stroke-width:0.5;stroke-dasharray:5,5;" x1="943.2109" x2="943.2109" y1="81.2969" y2="530.0234"/></g></g><g class="participant participant-head" data-entity-uid="part1" data-qualified-name="User" id="part1-head"><text fill="#000000" font-family="sans-serif" font-size="14" lengthAdjust="spacing" textLength="31.9102" x="5" y="77.9951">User</text><ellipse cx="23.9551" cy="13.5" fill="#FFCCCC" rx="8" ry="8" style="stroke:#181818;stroke-width:0.5;"/><path d="M23.9551,21.5 L23.9551,48.5 M10.9551,29.5 L36.9551,29.5 M23.9551,48.5 L10.9551,63.5 M23.9551,48.5 L36.9551,63.5" fill="none" style="stroke:#181818;stroke-width:0.5;"/></g><g class="participant participant-tail" data-entity-uid="part1" data-qualified-name="User" id="part1-tail"><text fill="#000000" font-family="sans-serif" font-size="14" lengthAdjust="spacing" textLength="31.9102" x="5" y="542.0186">User</text><ellipse cx="23.9551" cy="553.8203" fill="#FFCCCC" rx="8" ry="8" style="stroke:#181818;stroke-width:0.5;"/><path d="M23.9551,561.8203 L23.9551,588.8203 M10.9551,569.8203 L36.9551,569.8203 M23.9551,588.8203 L10.9551,603.8203 M23.9551,588.8203 L36.9551,603.8203" fill="none" style="stroke:#181818;stroke-width:0.5;"/></g><g class="participant participant-head" data-entity-uid="part2" data-qualified-name="Main" id="part2-head"><rect fill="#E2E2F0" height="30.2969" rx="2.5" ry="2.5" style="stroke:#181818;stroke-width:0.5;" width="47.4209" x="76.6318" y="50"/><text fill="#000000" font-family="sans-serif" font-size="14" lengthAdjust="spacing" textLength="33.4209" x="83.6318" y="69.9951">Main</text></g><g class="participant participant-tail" data-entity-uid="part2" data-qualified-name="Main" id="part2-tail"><rect fill="#E2E2F0" height="30.2969" rx="2.5" ry="2.5" style="stroke:#181818;stroke-width:0.5;" width="47.4209" x="76.6318" y="529.0234"/><text fill="#000000" font-family="sans-serif" font-size="14" lengthAdjust="spacing" textLength="33.4209" x="83.6318" y="549.0186">Main</text></g><g class="participant participant-head" data-entity-uid="part3" data-qualified-name="NotificationService" id="part3-head"><rect fill="#E2E2F0" height="30.2969" rx="2.5" ry="2.5" style="stroke:#181818;stroke-width:0.5;" width="146.0703" x="147.415" y="50"/><text fill="#000000" font-family="sans-serif" font-size="14" lengthAdjust="spacing" textLength="132.0703" x="154.415" y="69.9951">NotificationService</text></g><g class="participant participant-tail" data-entity-uid="part3" data-qualified-name="NotificationService" id="part3-tail"><rect fill="#E2E2F0" height="30.2969" rx="2.5" ry="2.5" style="stroke:#181818;stroke-width:0.5;" width="146.0703" x="147.415" y="529.0234"/><text fill="#000000" font-family="sans-serif" font-size="14" lengthAdjust="spacing" textLength="132.0703" x="154.415" y="549.0186">NotificationService</text></g><g class="participant participant-head" data-entity-uid="part4" data-qualified-name="NotificationFactory" id="part4-head"><rect fill="#E2E2F0" height="30.2969" rx="2.5" ry="2.5" style="stroke:#181818;stroke-width:0.5;" width="146.7539" x="350.9365" y="50"/><text fill="#000000" font-family="sans-serif" font-size="14" lengthAdjust="spacing" textLength="132.7539" x="357.9365" y="69.9951">NotificationFactory</text></g><g class="participant participant-tail" data-entity-uid="part4" data-qualified-name="NotificationFactory" id="part4-tail"><rect fill="#E2E2F0" height="30.2969" rx="2.5" ry="2.5" style="stroke:#181818;stroke-width:0.5;" width="146.7539" x="350.9365" y="529.0234"/><text fill="#000000" font-family="sans-serif" font-size="14" lengthAdjust="spacing" textLength="132.7539" x="357.9365" y="549.0186">NotificationFactory</text></g><g class="participant participant-head" data-entity-uid="part5" data-qualified-name="EmailNotification" id="part5-head"><rect fill="#E2E2F0" height="30.2969" rx="2.5" ry="2.5" style="stroke:#181818;stroke-width:0.5;" width="133.1709" x="507.6904" y="50"/><text fill="#000000" font-family="sans-serif" font-size="14" lengthAdjust="spacing" textLength="119.1709" x="514.6904" y="69.9951">EmailNotification</text></g><g class="participant participant-tail" data-entity-uid="part5" data-qualified-name="EmailNotification" id="part5-tail"><rect fill="#E2E2F0" height="30.2969" rx="2.5" ry="2.5" style="stroke:#181818;stroke-width:0.5;" width="133.1709" x="507.6904" y="529.0234"/><text fill="#000000" font-family="sans-serif" font-size="14" lengthAdjust="spacing" textLength="119.1709" x="514.6904" y="549.0186">EmailNotification</text></g><g class="participant participant-head" data-entity-uid="part6" data-qualified-name="NotificationHistoryRepository" id="part6-head"><rect fill="#E2E2F0" height="30.2969" rx="2.5" ry="2.5" style="stroke:#181818;stroke-width:0.5;" width="219.208" x="650.8613" y="50"/><text fill="#000000" font-family="sans-serif" font-size="14" lengthAdjust="spacing" textLength="205.208" x="657.8613" y="69.9951">NotificationHistoryRepository</text></g><g class="participant participant-tail" data-entity-uid="part6" data-qualified-name="NotificationHistoryRepository" id="part6-tail"><rect fill="#E2E2F0" height="30.2969" rx="2.5" ry="2.5" style="stroke:#181818;stroke-width:0.5;" width="219.208" x="650.8613" y="529.0234"/><text fill="#000000" font-family="sans-serif" font-size="14" lengthAdjust="spacing" textLength="205.208" x="657.8613" y="549.0186">NotificationHistoryRepository</text></g><g class="participant participant-head" data-entity-uid="part7" data-qualified-name="Console" id="part7-head"><text fill="#000000" font-family="sans-serif" font-size="14" lengthAdjust="spacing" textLength="55.5762" x="913.2109" y="77.9951">Console</text><path d="M923.499,37 L923.499,61 M923.499,49 L940.499,49" fill="none" style="stroke:#181818;stroke-width:0.5;"/><ellipse cx="952.499" cy="49" fill="#FFCCCC" rx="12" ry="12" style="stroke:#181818;stroke-width:0.5;"/></g><g class="participant participant-tail" data-entity-uid="part7" data-qualified-name="Console" id="part7-tail"><text fill="#000000" font-family="sans-serif" font-size="14" lengthAdjust="spacing" textLength="55.5762" x="913.2109" y="542.0186">Console</text><path d="M923.499,549.3203 L923.499,573.3203 M923.499,561.3203 L940.499,561.3203" fill="none" style="stroke:#181818;stroke-width:0.5;"/><ellipse cx="952.499" cy="561.3203" fill="#FFCCCC" rx="12" ry="12" style="stroke:#181818;stroke-width:0.5;"/></g><g><title>Main</title><rect fill="#FFFFFF" height="408.5938" style="stroke:#181818;stroke-width:1;" width="10" x="95.3423" y="112.4297"/></g><g><title>NotificationService</title><rect fill="#FFFFFF" height="203.6641" style="stroke:#181818;stroke-width:1;" width="10" x="215.4502" y="206.9609"/></g><g><title>NotificationFactory</title><rect fill="#FFFFFF" height="29.1328" style="stroke:#181818;stroke-width:1;" width="10" x="419.3135" y="236.0938"/></g><g><title>EmailNotification</title><rect fill="#FFFFFF" height="102.2656" style="stroke:#181818;stroke-width:1;" width="10" x="569.2759" y="294.3594"/></g><g><title>NotificationHistoryRepository</title><rect fill="#FFFFFF" height="30" style="stroke:#181818;stroke-width:1;" width="10" x="755.4653" y="352.625"/></g><g><title>NotificationHistoryRepository</title><rect fill="#FFFFFF" height="29.1328" style="stroke:#181818;stroke-width:1;" width="10" x="755.4653" y="439.7578"/></g><g class="message" data-entity-1="part1" data-entity-2="part2" id="msg1"><polygon fill="#181818" points="83.3423,108.4297,93.3423,112.4297,83.3423,116.4297,87.3423,112.4297" style="stroke:#181818;stroke-width:1;"/><line style="stroke:#181818;stroke-width:1;" x1="23.9551" x2="89.3423" y1="112.4297" y2="112.4297"/><text fill="#000000" font-family="sans-serif" font-size="13" lengthAdjust="spacing" textLength="52.3872" x="30.9551" y="107.3638">Execute</text></g><g class="message" data-entity-1="part2" data-entity-2="part2" id="msg2"><line style="stroke:#181818;stroke-width:1;" x1="105.3423" x2="147.3423" y1="145.6289" y2="145.6289"/><line style="stroke:#181818;stroke-width:1;" x1="147.3423" x2="147.3423" y1="145.6289" y2="158.6289"/><line style="stroke:#181818;stroke-width:1;" x1="106.3423" x2="147.3423" y1="158.6289" y2="158.6289"/><polygon fill="#181818" points="116.3423,154.6289,106.3423,158.6289,116.3423,162.6289,112.3423,158.6289" style="stroke:#181818;stroke-width:1;"/></g><path d="M170,125.4297 L170,180.4297 L390,180.4297 L390,135.4297 L380,125.4297 L170,125.4297" fill="#FEFFDD" style="stroke:#181818;stroke-width:0.5;"/><path d="M380,125.4297 L380,135.4297 L390,135.4297 L380,125.4297" fill="#FEFFDD" style="stroke:#181818;stroke-width:0.5;"/><text fill="#000000" font-family="sans-serif" font-size="13" lengthAdjust="spacing" textLength="140.2769" x="176" y="142.4966">create some instance</text><text fill="#000000" font-family="sans-serif" font-size="13" lengthAdjust="spacing" textLength="136.8047" x="176" y="157.6294">- NotificationRequest</text><text fill="#000000" font-family="sans-serif" font-size="13" lengthAdjust="spacing" textLength="199.3735" x="176" y="172.7622">- NotificationHistoryRepository</text><g class="message" data-entity-1="part2" data-entity-2="part3" id="msg4"><polygon fill="#181818" points="203.4502,202.9609,213.4502,206.9609,203.4502,210.9609,207.4502,206.9609" style="stroke:#181818;stroke-width:1;"/><line style="stroke:#181818;stroke-width:1;" x1="105.3423" x2="209.4502" y1="206.9609" y2="206.9609"/><text fill="#000000" font-family="sans-serif" font-size="13" lengthAdjust="spacing" textLength="91.1079" x="112.3423" y="201.895">send(request)</text></g><g class="message" data-entity-1="part3" data-entity-2="part4" id="msg5"><polygon fill="#181818" points="407.3135,232.0938,417.3135,236.0938,407.3135,240.0938,411.3135,236.0938" style="stroke:#181818;stroke-width:1;"/><line style="stroke:#181818;stroke-width:1;" x1="225.4502" x2="413.3135" y1="236.0938" y2="236.0938"/><text fill="#000000" font-family="sans-serif" font-size="13" lengthAdjust="spacing" textLength="91.0952" x="232.4502" y="231.0278">create(EMAIL)</text></g><g class="message" data-entity-1="part4" data-entity-2="part3" id="msg6"><polygon fill="#181818" points="236.4502,261.2266,226.4502,265.2266,236.4502,269.2266,232.4502,265.2266" style="stroke:#181818;stroke-width:1;"/><line style="stroke:#181818;stroke-width:1;stroke-dasharray:2,2;" x1="230.4502" x2="423.3135" y1="265.2266" y2="265.2266"/><text fill="#000000" font-family="sans-serif" font-size="13" lengthAdjust="spacing" textLength="169.8633" x="242.4502" y="260.1606">EmailNotification instance</text></g><g class="message" data-entity-1="part3" data-entity-2="part5" id="msg7"><polygon fill="#181818" points="557.2759,290.3594,567.2759,294.3594,557.2759,298.3594,561.2759,294.3594" style="stroke:#181818;stroke-width:1;"/><line style="stroke:#181818;stroke-width:1;" x1="225.4502" x2="563.2759" y1="294.3594" y2="294.3594"/><text fill="#000000" font-family="sans-serif" font-size="13" lengthAdjust="spacing" textLength="91.1079" x="232.4502" y="289.2935">send(request)</text></g><g class="message" data-entity-1="part5" data-entity-2="part7" id="msg8"><polygon fill="#181818" points="931.999,319.4922,941.999,323.4922,931.999,327.4922,935.999,323.4922" style="stroke:#181818;stroke-width:1;"/><line style="stroke:#181818;stroke-width:1;" x1="579.2759" x2="937.999" y1="323.4922" y2="323.4922"/><text fill="#000000" font-family="sans-serif" font-size="13" lengthAdjust="spacing" textLength="340.7231" x="586.2759" y="318.4263">print "Send Email to: user@example.com - body: ..."</text></g><g class="message" data-entity-1="part5" data-entity-2="part6" id="msg9"><polygon fill="#181818" points="743.4653,348.625,753.4653,352.625,743.4653,356.625,747.4653,352.625" style="stroke:#181818;stroke-width:1;"/><line style="stroke:#181818;stroke-width:1;" x1="579.2759" x2="749.4653" y1="352.625" y2="352.625"/><text fill="#000000" font-family="sans-serif" font-size="13" lengthAdjust="spacing" textLength="79.3267" x="586.2759" y="347.5591">add(history)</text></g><g class="message" data-entity-1="part5" data-entity-2="part3" id="msg10"><polygon fill="#181818" points="236.4502,392.625,226.4502,396.625,236.4502,400.625,232.4502,396.625" style="stroke:#181818;stroke-width:1;"/><line style="stroke:#181818;stroke-width:1;stroke-dasharray:2,2;" x1="230.4502" x2="573.2759" y1="396.625" y2="396.625"/></g><g class="message" data-entity-1="part3" data-entity-2="part2" id="msg11"><polygon fill="#181818" points="116.3423,406.625,106.3423,410.625,116.3423,414.625,112.3423,410.625" style="stroke:#181818;stroke-width:1;"/><line style="stroke:#181818;stroke-width:1;stroke-dasharray:2,2;" x1="110.3423" x2="219.4502" y1="410.625" y2="410.625"/></g><g class="message" data-entity-1="part2" data-entity-2="part6" id="msg12"><polygon fill="#181818" points="743.4653,435.7578,753.4653,439.7578,743.4653,443.7578,747.4653,439.7578" style="stroke:#181818;stroke-width:1;"/><line style="stroke:#181818;stroke-width:1;" x1="105.3423" x2="749.4653" y1="439.7578" y2="439.7578"/><text fill="#000000" font-family="sans-serif" font-size="13" lengthAdjust="spacing" textLength="50.9399" x="112.3423" y="434.6919">findAll()</text></g><g class="message" data-entity-1="part6" data-entity-2="part2" id="msg13"><polygon fill="#181818" points="116.3423,464.8906,106.3423,468.8906,116.3423,472.8906,112.3423,468.8906" style="stroke:#181818;stroke-width:1;"/><line style="stroke:#181818;stroke-width:1;stroke-dasharray:2,2;" x1="110.3423" x2="759.4653" y1="468.8906" y2="468.8906"/><text fill="#000000" font-family="sans-serif" font-size="13" lengthAdjust="spacing" textLength="165.3501" x="122.3423" y="463.8247">List&lt;NotificationHistory&gt;</text></g><g class="message" data-entity-1="part2" data-entity-2="part7" id="msg14"><polygon fill="#181818" points="931.999,494.0234,941.999,498.0234,931.999,502.0234,935.999,498.0234" style="stroke:#181818;stroke-width:1;"/><line style="stroke:#181818;stroke-width:1;" x1="105.3423" x2="937.999" y1="498.0234" y2="498.0234"/><text fill="#000000" font-family="sans-serif" font-size="13" lengthAdjust="spacing" textLength="168.8032" x="112.3423" y="492.9575">print Notification histories</text></g><g class="message" data-entity-1="part2" data-entity-2="part1" id="msg15"><polygon fill="#181818" points="34.9551,508.0234,24.9551,512.0234,34.9551,516.0234,30.9551,512.0234" style="stroke:#181818;stroke-width:1;"/><line style="stroke:#181818;stroke-width:1;stroke-dasharray:2,2;" x1="28.9551" x2="94.3423" y1="512.0234" y2="512.0234"/></g><?plantuml-src ZLJBRi8m4BpdArRqaXx81rWLAggeMWbw0FK3ZBCfAoLsQZi8_hxE2mYsAtB8ONSydftPX0khD7mRrF1K5C8zISsr9K4rbnOsdEIayAKi5IIu9ILtg8yaCDf_votvUT9VLPpAMr3qz0UPzlGMQsMeuzchHkPSd-5DIQDAl2XEEltpHIUNmUg4eh6OkElfo2tsKxIl4PD8vSgQVWus0H0QMvHH5G99OxbqGm7C9tAs-DkWiLxTbuaoXvR_ScF0CmR6mLBTapvVfORy3TJkQGUhsJ1BkjeiFzSHsZ6MG0tcCRbURbUdSdpucXlr7c7K4dzbV36ES5WA1hKcjqgpNPj3XmIh63HkHLxnnAkwn4oeoiMuLxbpBCkoMPZntvWPy3nF3tqvuhI_6n6lV610K3YQMqhVgQ3vuqSG4JCIXzOtO4D1Cb-MPVgm1_zsB-eOh5tl9G1UFExYECBTRanyxICaDCa0T_ZsV_87?></g></svg>