<svg xmlns="http://www.w3.org/2000/svg" xmlns:xlink="http://www.w3.org/1999/xlink" contentStyleType="text/css" data-diagram-type="SEQUENCE" height="502px" preserveAspectRatio="none" style="width:1282px;height:502px;background:#FFFFFF;" version="1.1" viewBox="0 0 1282 502" width="1282px" zoomAndPan="magnify"><defs/><g><g><title>User</title><rect fill="#000000" fill-opacity="0.00000" height="340.4609" width="8" x="19.9551" y="81.2969"/><line style="stroke:#181818;stroke-width:0.5;stroke-dasharray:5,5;" x1="23" x2="23" y1="81.2969" y2="421.7578"/></g><g><title>Main</title><rect fill="#000000" fill-opacity="0.00000" height="340.4609" width="8" x="443.3052" y="81.2969"/><line style="stroke:#181818;stroke-width:0.5;stroke-dasharray:5,5;" x1="446.5947" x2="446.5947" y1="81.2969" y2="421.7578"/></g><g><title>NotificationService</title><rect fill="#000000" fill-opacity="0.00000" height="340.4609" width="8" x="632.541" y="81.2969"/><line style="stroke:#181818;stroke-width:0.5;stroke-dasharray:5,5;" x1="636.5059" x2="636.5059" y1="81.2969" y2="421.7578"/></g><g><title>NotificationFactory</title><rect fill="#000000" fill-opacity="0.00000" height="340.4609" width="8" x="826.4043" y="81.2969"/><line style="stroke:#181818;stroke-width:0.5;stroke-dasharray:5,5;" x1="830.0273" x2="830.0273" y1="81.2969" y2="421.7578"/></g><g><title>EmailNotification</title><rect fill="#000000" fill-opacity="0.00000" height="340.4609" width="8" x="976.3667" y="81.2969"/><line style="stroke:#181818;stroke-width:0.5;stroke-dasharray:5,5;" x1="979.7813" x2="979.7813" y1="81.2969" y2="421.7578"/></g><g><title>NotificationHistoryRepository</title><rect fill="#000000" fill-opacity="0.00000" height="340.4609" width="8" x="1162.5562" y="81.2969"/><line style="stroke:#181818;stroke-width:0.5;stroke-dasharray:5,5;" x1="1165.9521" x2="1165.9521" y1="81.2969" y2="421.7578"/></g><g class="participant participant-head" data-participant="User"><text fill="#000000" font-family="sans-serif" font-size="14" lengthAdjust="spacing" textLength="31.9102" x="5" y="77.9951">User</text><ellipse cx="23.9551" cy="13.5" fill="#E2E2F0" rx="8" ry="8" style="stroke:#181818;stroke-width:0.5;"/><path d="M23.9551,21.5 L23.9551,48.5 M10.9551,29.5 L36.9551,29.5 M23.9551,48.5 L10.9551,63.5 M23.9551,48.5 L36.9551,63.5" fill="none" style="stroke:#181818;stroke-width:0.5;"/></g><g class="participant participant-tail" data-participant="User"><text fill="#000000" font-family="sans-serif" font-size="14" lengthAdjust="spacing" textLength="31.9102" x="5" y="433.7529">User</text><ellipse cx="23.9551" cy="445.5547" fill="#E2E2F0" rx="8" ry="8" style="stroke:#181818;stroke-width:0.5;"/><path d="M23.9551,453.5547 L23.9551,480.5547 M10.9551,461.5547 L36.9551,461.5547 M23.9551,480.5547 L10.9551,495.5547 M23.9551,480.5547 L36.9551,495.5547" fill="none" style="stroke:#181818;stroke-width:0.5;"/></g><g class="participant participant-head" data-participant="Main"><rect fill="#E2E2F0" height="30.2969" rx="2.5" ry="2.5" style="stroke:#181818;stroke-width:0.5;" width="47.4209" x="423.5947" y="50"/><text fill="#000000" font-family="sans-serif" font-size="14" lengthAdjust="spacing" textLength="33.4209" x="430.5947" y="69.9951">Main</text></g><g class="participant participant-tail" data-participant="Main"><rect fill="#E2E2F0" height="30.2969" rx="2.5" ry="2.5" style="stroke:#181818;stroke-width:0.5;" width="47.4209" x="423.5947" y="420.7578"/><text fill="#000000" font-family="sans-serif" font-size="14" lengthAdjust="spacing" textLength="33.4209" x="430.5947" y="440.7529">Main</text></g><g class="participant participant-head" data-participant="NotificationService"><rect fill="#E2E2F0" height="30.2969" rx="2.5" ry="2.5" style="stroke:#181818;stroke-width:0.5;" width="146.0703" x="563.5059" y="50"/><text fill="#000000" font-family="sans-serif" font-size="14" lengthAdjust="spacing" textLength="132.0703" x="570.5059" y="69.9951">NotificationService</text></g><g class="participant participant-tail" data-participant="NotificationService"><rect fill="#E2E2F0" height="30.2969" rx="2.5" ry="2.5" style="stroke:#181818;stroke-width:0.5;" width="146.0703" x="563.5059" y="420.7578"/><text fill="#000000" font-family="sans-serif" font-size="14" lengthAdjust="spacing" textLength="132.0703" x="570.5059" y="440.7529">NotificationService</text></g><g class="participant participant-head" data-participant="NotificationFactory"><rect fill="#E2E2F0" height="30.2969" rx="2.5" ry="2.5" style="stroke:#181818;stroke-width:0.5;" width="146.7539" x="757.0273" y="50"/><text fill="#000000" font-family="sans-serif" font-size="14" lengthAdjust="spacing" textLength="132.7539" x="764.0273" y="69.9951">NotificationFactory</text></g><g class="participant participant-tail" data-participant="NotificationFactory"><rect fill="#E2E2F0" height="30.2969" rx="2.5" ry="2.5" style="stroke:#181818;stroke-width:0.5;" width="146.7539" x="757.0273" y="420.7578"/><text fill="#000000" font-family="sans-serif" font-size="14" lengthAdjust="spacing" textLength="132.7539" x="764.0273" y="440.7529">NotificationFactory</text></g><g class="participant participant-head" data-participant="EmailNotification"><rect fill="#E2E2F0" height="30.2969" rx="2.5" ry="2.5" style="stroke:#181818;stroke-width:0.5;" width="133.1709" x="913.7813" y="50"/><text fill="#000000" font-family="sans-serif" font-size="14" lengthAdjust="spacing" textLength="119.1709" x="920.7813" y="69.9951">EmailNotification</text></g><g class="participant participant-tail" data-participant="EmailNotification"><rect fill="#E2E2F0" height="30.2969" rx="2.5" ry="2.5" style="stroke:#181818;stroke-width:0.5;" width="133.1709" x="913.7813" y="420.7578"/><text fill="#000000" font-family="sans-serif" font-size="14" lengthAdjust="spacing" textLength="119.1709" x="920.7813" y="440.7529">EmailNotification</text></g><g class="participant participant-head" data-participant="NotificationHistoryRepository"><rect fill="#E2E2F0" height="30.2969" rx="2.5" ry="2.5" style="stroke:#181818;stroke-width:0.5;" width="219.208" x="1056.9521" y="50"/><text fill="#000000" font-family="sans-serif" font-size="14" lengthAdjust="spacing" textLength="205.208" x="1063.9521" y="69.9951">NotificationHistoryRepository</text></g><g class="participant participant-tail" data-participant="NotificationHistoryRepository"><rect fill="#E2E2F0" height="30.2969" rx="2.5" ry="2.5" style="stroke:#181818;stroke-width:0.5;" width="219.208" x="1056.9521" y="420.7578"/><text fill="#000000" font-family="sans-serif" font-size="14" lengthAdjust="spacing" textLength="205.208" x="1063.9521" y="440.7529">NotificationHistoryRepository</text></g><g class="message" data-participant-1="User" data-participant-2="Main"><polygon fill="#181818" points="435.3052,108.4297,445.3052,112.4297,435.3052,116.4297,439.3052,112.4297" style="stroke:#181818;stroke-width:1;"/><line style="stroke:#181818;stroke-width:1;" x1="23.9551" x2="441.3052" y1="112.4297" y2="112.4297"/><text fill="#000000" font-family="sans-serif" font-size="13" lengthAdjust="spacing" textLength="399.3501" x="30.9551" y="107.3638">create NotificationRequest (EmailRecipient, message, EMAIL)</text></g><g class="message" data-participant-1="Main" data-participant-2="NotificationService"><polygon fill="#181818" points="624.541,137.5625,634.541,141.5625,624.541,145.5625,628.541,141.5625" style="stroke:#181818;stroke-width:1;"/><line style="stroke:#181818;stroke-width:1;" x1="447.3052" x2="630.541" y1="141.5625" y2="141.5625"/><text fill="#000000" font-family="sans-serif" font-size="13" lengthAdjust="spacing" textLength="91.1079" x="454.3052" y="136.4966">send(request)</text></g><g class="message" data-participant-1="NotificationService" data-participant-2="NotificationFactory"><polygon fill="#181818" points="818.4043,166.6953,828.4043,170.6953,818.4043,174.6953,822.4043,170.6953" style="stroke:#181818;stroke-width:1;"/><line style="stroke:#181818;stroke-width:1;" x1="636.541" x2="824.4043" y1="170.6953" y2="170.6953"/><text fill="#000000" font-family="sans-serif" font-size="13" lengthAdjust="spacing" textLength="91.0952" x="643.541" y="165.6294">create(EMAIL)</text></g><g class="message" data-participant-1="NotificationFactory" data-participant-2="NotificationService"><polygon fill="#181818" points="647.541,195.8281,637.541,199.8281,647.541,203.8281,643.541,199.8281" style="stroke:#181818;stroke-width:1;"/><line style="stroke:#181818;stroke-width:1;stroke-dasharray:2,2;" x1="641.541" x2="829.4043" y1="199.8281" y2="199.8281"/><text fill="#000000" font-family="sans-serif" font-size="13" lengthAdjust="spacing" textLength="169.8633" x="653.541" y="194.7622">EmailNotification instance</text></g><g class="message" data-participant-1="NotificationService" data-participant-2="EmailNotification"><polygon fill="#181818" points="968.3667,224.9609,978.3667,228.9609,968.3667,232.9609,972.3667,228.9609" style="stroke:#181818;stroke-width:1;"/><line style="stroke:#181818;stroke-width:1;" x1="636.541" x2="974.3667" y1="228.9609" y2="228.9609"/><text fill="#000000" font-family="sans-serif" font-size="13" lengthAdjust="spacing" textLength="91.1079" x="643.541" y="223.895">send(request)</text></g><g class="message" data-participant-1="EmailNotification" data-participant-2="Main"><polygon fill="#181818" points="458.3052,254.0938,448.3052,258.0938,458.3052,262.0938,454.3052,258.0938" style="stroke:#181818;stroke-width:1;"/><line style="stroke:#181818;stroke-width:1;" x1="452.3052" x2="979.3667" y1="258.0938" y2="258.0938"/><text fill="#000000" font-family="sans-serif" font-size="13" lengthAdjust="spacing" textLength="506.3335" x="464.3052" y="253.0278">&#171;console&#187; System.out.println("Send Email to: user@example.com - body: ...")</text></g><g class="message" data-participant-1="EmailNotification" data-participant-2="NotificationHistoryRepository"><polygon fill="#181818" points="1154.5562,283.2266,1164.5562,287.2266,1154.5562,291.2266,1158.5562,287.2266" style="stroke:#181818;stroke-width:1;"/><line style="stroke:#181818;stroke-width:1;" x1="980.3667" x2="1160.5562" y1="287.2266" y2="287.2266"/><text fill="#000000" font-family="sans-serif" font-size="13" lengthAdjust="spacing" textLength="79.3267" x="987.3667" y="282.1606">add(history)</text></g><g class="message" data-participant-1="NotificationHistoryRepository" data-participant-2="EmailNotification"><polygon fill="#181818" points="991.3667,312.3594,981.3667,316.3594,991.3667,320.3594,987.3667,316.3594" style="stroke:#181818;stroke-width:1;"/><line style="stroke:#181818;stroke-width:1;stroke-dasharray:2,2;" x1="985.3667" x2="1165.5562" y1="316.3594" y2="316.3594"/><text fill="#000000" font-family="sans-serif" font-size="13" lengthAdjust="spacing" textLength="22.6421" x="997.3667" y="311.2935">ack</text></g><g class="message" data-participant-1="EmailNotification" data-participant-2="NotificationService"><polygon fill="#181818" points="647.541,341.4922,637.541,345.4922,647.541,349.4922,643.541,345.4922" style="stroke:#181818;stroke-width:1;"/><line style="stroke:#181818;stroke-width:1;stroke-dasharray:2,2;" x1="641.541" x2="979.3667" y1="345.4922" y2="345.4922"/><text fill="#000000" font-family="sans-serif" font-size="13" lengthAdjust="spacing" textLength="165.2358" x="653.541" y="340.4263">return NotificationHistory</text></g><g class="message" data-participant-1="NotificationService" data-participant-2="Main"><polygon fill="#181818" points="458.3052,370.625,448.3052,374.625,458.3052,378.625,454.3052,374.625" style="stroke:#181818;stroke-width:1;"/><line style="stroke:#181818;stroke-width:1;stroke-dasharray:2,2;" x1="452.3052" x2="635.541" y1="374.625" y2="374.625"/><text fill="#000000" font-family="sans-serif" font-size="13" lengthAdjust="spacing" textLength="165.2358" x="464.3052" y="369.5591">return NotificationHistory</text></g><g class="message" data-participant-1="Main" data-participant-2="User"><polygon fill="#181818" points="34.9551,399.7578,24.9551,403.7578,34.9551,407.7578,30.9551,403.7578" style="stroke:#181818;stroke-width:1;"/><line style="stroke:#181818;stroke-width:1;" x1="28.9551" x2="446.3052" y1="403.7578" y2="403.7578"/><text fill="#000000" font-family="sans-serif" font-size="13" lengthAdjust="spacing" textLength="71.7412" x="40.9551" y="398.6919">print result</text></g><!--SRC=[VP9BJiCm48RtESMegrHgSu2eYc1H119baOW33Cu08n8xs1D4Rq-Sj1Lfx6xj-H_psQZ4M7XrP9CEhR3Y3hN00LdF3bwCy3ih53Qw8ll3YgBt3-XDZxFxVOlS_1-AgX_PUNL9dN4y-YI-7coBiLKEoX8ApJGbVVVa1D8nfgJ1badB1bfo3Zze0_l3_TFpEl4EtYcmJWwET9tQoMgT14QkbQT5pvNIKqXW1BQnq0KOOEq4zS0tqc2Xk6w-jBoms-sKqSuqL1HG7PrGcvbUiiwobaQdgsemcW90J0xz0FwEVh7j6igKQM4BRwOU5iwoR1K9klcMEM1Tfv_JyPpKOdPa5bWMrLSeEGROalHMXsg50LzOtH2Ulv7_c3cCz8PnrpVo1m00]--></g></svg>