<svg xmlns="http://www.w3.org/2000/svg" xmlns:xlink="http://www.w3.org/1999/xlink" contentStyleType="text/css" data-diagram-type="SEQUENCE" height="544px" preserveAspectRatio="none" style="width:1221px;height:544px;background:#FFFFFF;" version="1.1" viewBox="0 0 1221 544" width="1221px" zoomAndPan="magnify"><defs/><g><g><title>User</title><rect fill="#000000" fill-opacity="0.00000" height="382.5938" width="8" x="19.9551" y="81.2969"/><line style="stroke:#181818;stroke-width:0.5;stroke-dasharray:5,5;" x1="23" x2="23" y1="81.2969" y2="463.8906"/></g><g><title>Main</title><rect fill="#000000" fill-opacity="0.00000" height="382.5938" width="8" x="115.6963" y="81.2969"/><line style="stroke:#181818;stroke-width:0.5;stroke-dasharray:5,5;" x1="118.9858" x2="118.9858" y1="81.2969" y2="463.8906"/></g><g><title>NotificationService</title><rect fill="#000000" fill-opacity="0.00000" height="382.5938" width="8" x="571.8232" y="81.2969"/><line style="stroke:#181818;stroke-width:0.5;stroke-dasharray:5,5;" x1="575.7881" x2="575.7881" y1="81.2969" y2="463.8906"/></g><g><title>NotificationFactory</title><rect fill="#000000" fill-opacity="0.00000" height="382.5938" width="8" x="765.6865" y="81.2969"/><line style="stroke:#181818;stroke-width:0.5;stroke-dasharray:5,5;" x1="769.3096" x2="769.3096" y1="81.2969" y2="463.8906"/></g><g><title>EmailNotification</title><rect fill="#000000" fill-opacity="0.00000" height="382.5938" width="8" x="915.6489" y="81.2969"/><line style="stroke:#181818;stroke-width:0.5;stroke-dasharray:5,5;" x1="919.0635" x2="919.0635" y1="81.2969" y2="463.8906"/></g><g><title>NotificationHistoryRepository</title><rect fill="#000000" fill-opacity="0.00000" height="382.5938" width="8" x="1101.8384" y="81.2969"/><line style="stroke:#181818;stroke-width:0.5;stroke-dasharray:5,5;" x1="1105.2344" x2="1105.2344" y1="81.2969" y2="463.8906"/></g><g class="participant participant-head" data-participant="User"><text fill="#000000" font-family="sans-serif" font-size="14" lengthAdjust="spacing" textLength="31.9102" x="5" y="77.9951">User</text><ellipse cx="23.9551" cy="13.5" fill="#E2E2F0" rx="8" ry="8" style="stroke:#181818;stroke-width:0.5;"/><path d="M23.9551,21.5 L23.9551,48.5 M10.9551,29.5 L36.9551,29.5 M23.9551,48.5 L10.9551,63.5 M23.9551,48.5 L36.9551,63.5" fill="none" style="stroke:#181818;stroke-width:0.5;"/></g><g class="participant participant-tail" data-participant="User"><text fill="#000000" font-family="sans-serif" font-size="14" lengthAdjust="spacing" textLength="31.9102" x="5" y="475.8857">User</text><ellipse cx="23.9551" cy="487.6875" fill="#E2E2F0" rx="8" ry="8" style="stroke:#181818;stroke-width:0.5;"/><path d="M23.9551,495.6875 L23.9551,522.6875 M10.9551,503.6875 L36.9551,503.6875 M23.9551,522.6875 L10.9551,537.6875 M23.9551,522.6875 L36.9551,537.6875" fill="none" style="stroke:#181818;stroke-width:0.5;"/></g><g class="participant participant-head" data-participant="Main"><rect fill="#E2E2F0" height="30.2969" rx="2.5" ry="2.5" style="stroke:#181818;stroke-width:0.5;" width="47.4209" x="95.9858" y="50"/><text fill="#000000" font-family="sans-serif" font-size="14" lengthAdjust="spacing" textLength="33.4209" x="102.9858" y="69.9951">Main</text></g><g class="participant participant-tail" data-participant="Main"><rect fill="#E2E2F0" height="30.2969" rx="2.5" ry="2.5" style="stroke:#181818;stroke-width:0.5;" width="47.4209" x="95.9858" y="462.8906"/><text fill="#000000" font-family="sans-serif" font-size="14" lengthAdjust="spacing" textLength="33.4209" x="102.9858" y="482.8857">Main</text></g><g class="participant participant-head" data-participant="NotificationService"><rect fill="#E2E2F0" height="30.2969" rx="2.5" ry="2.5" style="stroke:#181818;stroke-width:0.5;" width="146.0703" x="502.7881" y="50"/><text fill="#000000" font-family="sans-serif" font-size="14" lengthAdjust="spacing" textLength="132.0703" x="509.7881" y="69.9951">NotificationService</text></g><g class="participant participant-tail" data-participant="NotificationService"><rect fill="#E2E2F0" height="30.2969" rx="2.5" ry="2.5" style="stroke:#181818;stroke-width:0.5;" width="146.0703" x="502.7881" y="462.8906"/><text fill="#000000" font-family="sans-serif" font-size="14" lengthAdjust="spacing" textLength="132.0703" x="509.7881" y="482.8857">NotificationService</text></g><g class="participant participant-head" data-participant="NotificationFactory"><rect fill="#E2E2F0" height="30.2969" rx="2.5" ry="2.5" style="stroke:#181818;stroke-width:0.5;" width="146.7539" x="696.3096" y="50"/><text fill="#000000" font-family="sans-serif" font-size="14" lengthAdjust="spacing" textLength="132.7539" x="703.3096" y="69.9951">NotificationFactory</text></g><g class="participant participant-tail" data-participant="NotificationFactory"><rect fill="#E2E2F0" height="30.2969" rx="2.5" ry="2.5" style="stroke:#181818;stroke-width:0.5;" width="146.7539" x="696.3096" y="462.8906"/><text fill="#000000" font-family="sans-serif" font-size="14" lengthAdjust="spacing" textLength="132.7539" x="703.3096" y="482.8857">NotificationFactory</text></g><g class="participant participant-head" data-participant="EmailNotification"><rect fill="#E2E2F0" height="30.2969" rx="2.5" ry="2.5" style="stroke:#181818;stroke-width:0.5;" width="133.1709" x="853.0635" y="50"/><text fill="#000000" font-family="sans-serif" font-size="14" lengthAdjust="spacing" textLength="119.1709" x="860.0635" y="69.9951">EmailNotification</text></g><g class="participant participant-tail" data-participant="EmailNotification"><rect fill="#E2E2F0" height="30.2969" rx="2.5" ry="2.5" style="stroke:#181818;stroke-width:0.5;" width="133.1709" x="853.0635" y="462.8906"/><text fill="#000000" font-family="sans-serif" font-size="14" lengthAdjust="spacing" textLength="119.1709" x="860.0635" y="482.8857">EmailNotification</text></g><g class="participant participant-head" data-participant="NotificationHistoryRepository"><rect fill="#E2E2F0" height="30.2969" rx="2.5" ry="2.5" style="stroke:#181818;stroke-width:0.5;" width="219.208" x="996.2344" y="50"/><text fill="#000000" font-family="sans-serif" font-size="14" lengthAdjust="spacing" textLength="205.208" x="1003.2344" y="69.9951">NotificationHistoryRepository</text></g><g class="participant participant-tail" data-participant="NotificationHistoryRepository"><rect fill="#E2E2F0" height="30.2969" rx="2.5" ry="2.5" style="stroke:#181818;stroke-width:0.5;" width="219.208" x="996.2344" y="462.8906"/><text fill="#000000" font-family="sans-serif" font-size="14" lengthAdjust="spacing" textLength="205.208" x="1003.2344" y="482.8857">NotificationHistoryRepository</text></g><g class="message" data-participant-1="User" data-participant-2="Main"><polygon fill="#181818" points="107.6963,108.4297,117.6963,112.4297,107.6963,116.4297,111.6963,112.4297" style="stroke:#181818;stroke-width:1;"/><line style="stroke:#181818;stroke-width:1;" x1="23.9551" x2="113.6963" y1="112.4297" y2="112.4297"/><text fill="#000000" font-family="sans-serif" font-size="13" lengthAdjust="spacing" textLength="52.3872" x="30.9551" y="107.3638">Execute</text></g><g class="message" data-participant-1="Main" data-participant-2="Main"><line style="stroke:#181818;stroke-width:1;" x1="119.6963" x2="161.6963" y1="141.5625" y2="141.5625"/><line style="stroke:#181818;stroke-width:1;" x1="161.6963" x2="161.6963" y1="141.5625" y2="154.5625"/><line style="stroke:#181818;stroke-width:1;" x1="120.6963" x2="161.6963" y1="154.5625" y2="154.5625"/><polygon fill="#181818" points="130.6963,150.5625,120.6963,154.5625,130.6963,158.5625,126.6963,154.5625" style="stroke:#181818;stroke-width:1;"/><text fill="#000000" font-family="sans-serif" font-size="13" lengthAdjust="spacing" textLength="442.127" x="126.6963" y="136.4966">create NotificationRequest (EmailAddress, "some message", EMAIL)</text></g><g class="message" data-participant-1="Main" data-participant-2="NotificationService"><polygon fill="#181818" points="563.8232,179.6953,573.8232,183.6953,563.8232,187.6953,567.8232,183.6953" style="stroke:#181818;stroke-width:1;"/><line style="stroke:#181818;stroke-width:1;" x1="119.6963" x2="569.8232" y1="183.6953" y2="183.6953"/><text fill="#000000" font-family="sans-serif" font-size="13" lengthAdjust="spacing" textLength="91.1079" x="126.6963" y="178.6294">send(request)</text></g><g class="message" data-participant-1="NotificationService" data-participant-2="NotificationFactory"><polygon fill="#181818" points="757.6865,208.8281,767.6865,212.8281,757.6865,216.8281,761.6865,212.8281" style="stroke:#181818;stroke-width:1;"/><line style="stroke:#181818;stroke-width:1;" x1="575.8232" x2="763.6865" y1="212.8281" y2="212.8281"/><text fill="#000000" font-family="sans-serif" font-size="13" lengthAdjust="spacing" textLength="91.0952" x="582.8232" y="207.7622">create(EMAIL)</text></g><g class="message" data-participant-1="NotificationFactory" data-participant-2="NotificationService"><polygon fill="#181818" points="586.8232,237.9609,576.8232,241.9609,586.8232,245.9609,582.8232,241.9609" style="stroke:#181818;stroke-width:1;"/><line style="stroke:#181818;stroke-width:1;stroke-dasharray:2,2;" x1="580.8232" x2="768.6865" y1="241.9609" y2="241.9609"/><text fill="#000000" font-family="sans-serif" font-size="13" lengthAdjust="spacing" textLength="169.8633" x="592.8232" y="236.895">EmailNotification instance</text></g><g class="message" data-participant-1="NotificationService" data-participant-2="EmailNotification"><polygon fill="#181818" points="907.6489,267.0938,917.6489,271.0938,907.6489,275.0938,911.6489,271.0938" style="stroke:#181818;stroke-width:1;"/><line style="stroke:#181818;stroke-width:1;" x1="575.8232" x2="913.6489" y1="271.0938" y2="271.0938"/><text fill="#000000" font-family="sans-serif" font-size="13" lengthAdjust="spacing" textLength="91.1079" x="582.8232" y="266.0278">send(request)</text></g><g class="message" data-participant-1="EmailNotification" data-participant-2="Main"><polygon fill="#181818" points="130.6963,296.2266,120.6963,300.2266,130.6963,304.2266,126.6963,300.2266" style="stroke:#181818;stroke-width:1;"/><line style="stroke:#181818;stroke-width:1;" x1="124.6963" x2="918.6489" y1="300.2266" y2="300.2266"/><text fill="#000000" font-family="sans-serif" font-size="13" lengthAdjust="spacing" textLength="506.3335" x="136.6963" y="295.1606">&#171;console&#187; System.out.println("Send Email to: user@example.com - body: ...")</text></g><g class="message" data-participant-1="EmailNotification" data-participant-2="NotificationHistoryRepository"><polygon fill="#181818" points="1093.8384,325.3594,1103.8384,329.3594,1093.8384,333.3594,1097.8384,329.3594" style="stroke:#181818;stroke-width:1;"/><line style="stroke:#181818;stroke-width:1;" x1="919.6489" x2="1099.8384" y1="329.3594" y2="329.3594"/><text fill="#000000" font-family="sans-serif" font-size="13" lengthAdjust="spacing" textLength="79.3267" x="926.6489" y="324.2935">add(history)</text></g><g class="message" data-participant-1="NotificationHistoryRepository" data-participant-2="EmailNotification"><polygon fill="#181818" points="930.6489,354.4922,920.6489,358.4922,930.6489,362.4922,926.6489,358.4922" style="stroke:#181818;stroke-width:1;"/><line style="stroke:#181818;stroke-width:1;stroke-dasharray:2,2;" x1="924.6489" x2="1104.8384" y1="358.4922" y2="358.4922"/><text fill="#000000" font-family="sans-serif" font-size="13" lengthAdjust="spacing" textLength="22.6421" x="936.6489" y="353.4263">ack</text></g><g class="message" data-participant-1="EmailNotification" data-participant-2="NotificationService"><polygon fill="#181818" points="586.8232,383.625,576.8232,387.625,586.8232,391.625,582.8232,387.625" style="stroke:#181818;stroke-width:1;"/><line style="stroke:#181818;stroke-width:1;stroke-dasharray:2,2;" x1="580.8232" x2="918.6489" y1="387.625" y2="387.625"/><text fill="#000000" font-family="sans-serif" font-size="13" lengthAdjust="spacing" textLength="165.2358" x="592.8232" y="382.5591">return NotificationHistory</text></g><g class="message" data-participant-1="NotificationService" data-participant-2="Main"><polygon fill="#181818" points="130.6963,412.7578,120.6963,416.7578,130.6963,420.7578,126.6963,416.7578" style="stroke:#181818;stroke-width:1;"/><line style="stroke:#181818;stroke-width:1;stroke-dasharray:2,2;" x1="124.6963" x2="574.8232" y1="416.7578" y2="416.7578"/><text fill="#000000" font-family="sans-serif" font-size="13" lengthAdjust="spacing" textLength="165.2358" x="136.6963" y="411.6919">return NotificationHistory</text></g><g class="message" data-participant-1="Main" data-participant-2="User"><polygon fill="#181818" points="34.9551,441.8906,24.9551,445.8906,34.9551,449.8906,30.9551,445.8906" style="stroke:#181818;stroke-width:1;"/><line style="stroke:#181818;stroke-width:1;" x1="28.9551" x2="118.6963" y1="445.8906" y2="445.8906"/><text fill="#000000" font-family="sans-serif" font-size="13" lengthAdjust="spacing" textLength="71.7412" x="40.9551" y="440.8247">print result</text></g><!--SRC=[VL9BReCm4DrpYX4h8YKS04MeML2rKjD5K0ymDTFM2jZK7bV9xMiWeIMOx63yVlDi5AmDl5aoKOk6fP0jAeOzIZKPl6gM7r8WIwrACZzIqEBv8tQYvybvqQ2i_uCMsK_ITkm3jThANYVgui4cxrDbK9n8EAQe-_kR2aF8D54wqBSZov3qvhkgCcJj6cAh6uB6V-CdnMiezhldbzKe5zWq0qkgIioWjue2a5lcfODhhkHY4e30PibqrXb8PHcLhtuXmOnnctmkEHQutGgjhAufpw4yMwOcrOxJraZ5jKhYqWiD1i0w0-Vlv85EsBGrfK8ti85tNVc5qpID5upkNdC6M5N9rp2UDZN3zfq5baLn33al5Mo8dL6XME62nwxk4A_Fg7kp6VJjURXrDVy2]--></g></svg>